<mxfile host="65bd71144e">
    <diagram id="emvvtYQxzRHmPXdrn84x" name="Page-1">
        <mxGraphModel dx="3890" dy="2518" grid="1" gridSize="10" guides="1" tooltips="1" connect="1" arrows="1" fold="1" page="1" pageScale="1" pageWidth="850" pageHeight="1100" math="0" shadow="0">
            <root>
                <mxCell id="0"/>
                <mxCell id="1" parent="0"/>
                <mxCell id="68" style="edgeStyle=none;html=1;entryX=0.25;entryY=0;entryDx=0;entryDy=0;exitX=0;exitY=0;exitDx=255.46499999999997;exitDy=360;exitPerimeter=0;fontStyle=1" parent="1" source="5" target="6" edge="1">
                    <mxGeometry relative="1" as="geometry">
                        <Array as="points"/>
                    </mxGeometry>
                </mxCell>
                <mxCell id="461" value="&lt;font style=&quot;font-size: 36px;&quot;&gt;Purpose of&amp;nbsp;&lt;br&gt;Contact&lt;/font&gt;" style="edgeLabel;html=1;align=center;verticalAlign=middle;resizable=0;points=[];fontSize=24;" parent="68" vertex="1" connectable="0">
                    <mxGeometry x="-0.2114" y="2" relative="1" as="geometry">
                        <mxPoint x="-50" y="8" as="offset"/>
                    </mxGeometry>
                </mxCell>
                <mxCell id="142" style="edgeStyle=none;html=1;entryX=1;entryY=0.25;entryDx=0;entryDy=0;fontSize=36;fontStyle=1;exitX=0.831;exitY=-0.001;exitDx=0;exitDy=0;exitPerimeter=0;" parent="1" source="5" target="115" edge="1">
                    <mxGeometry relative="1" as="geometry">
                        <Array as="points">
                            <mxPoint x="390" y="-590"/>
                            <mxPoint x="1310" y="-570"/>
                            <mxPoint x="1320" y="1545"/>
                        </Array>
                        <mxPoint x="410" y="-530" as="sourcePoint"/>
                        <mxPoint x="1190" y="1545" as="targetPoint"/>
                    </mxGeometry>
                </mxCell>
                <mxCell id="234" value="&lt;span style=&quot;font-size: 48px;&quot;&gt;&lt;b&gt;Customer Approval&lt;/b&gt;&lt;/span&gt;" style="edgeLabel;html=1;align=center;verticalAlign=middle;resizable=0;points=[];fontSize=24;" parent="142" vertex="1" connectable="0">
                    <mxGeometry x="-0.4972" y="2" relative="1" as="geometry">
                        <mxPoint x="-335" y="6" as="offset"/>
                    </mxGeometry>
                </mxCell>
                <mxCell id="288" value="&lt;span style=&quot;font-size: 48px;&quot;&gt;&lt;b&gt;Customer Approval&lt;/b&gt;&lt;/span&gt;" style="edgeLabel;html=1;align=center;verticalAlign=middle;resizable=0;points=[];fontSize=30;" parent="142" vertex="1" connectable="0">
                    <mxGeometry x="0.9023" y="-3" relative="1" as="geometry">
                        <mxPoint x="-197" y="-98" as="offset"/>
                    </mxGeometry>
                </mxCell>
                <mxCell id="155" style="edgeStyle=none;html=1;entryX=0;entryY=0.25;entryDx=0;entryDy=0;fontStyle=1;exitX=0.005;exitY=0.095;exitDx=0;exitDy=0;exitPerimeter=0;" parent="1" source="5" target="77" edge="1">
                    <mxGeometry relative="1" as="geometry">
                        <mxPoint x="-30" y="2622.619999999999" as="targetPoint"/>
                        <Array as="points">
                            <mxPoint x="-930" y="-470"/>
                            <mxPoint x="-1050" y="2360"/>
                            <mxPoint x="-400" y="2650"/>
                        </Array>
                        <mxPoint x="-89.69000000000005" y="-129.99652996144766" as="sourcePoint"/>
                    </mxGeometry>
                </mxCell>
                <mxCell id="245" value="&lt;font style=&quot;font-size: 36px;&quot;&gt;&lt;b&gt;Personal Information&lt;/b&gt;&lt;br&gt;&lt;/font&gt;" style="edgeLabel;html=1;align=center;verticalAlign=middle;resizable=0;points=[];fontSize=24;" parent="155" vertex="1" connectable="0">
                    <mxGeometry x="0.8077" y="5" relative="1" as="geometry">
                        <mxPoint x="109" y="-9" as="offset"/>
                    </mxGeometry>
                </mxCell>
                <mxCell id="261" value="Personal Information" style="edgeLabel;html=1;align=center;verticalAlign=middle;resizable=0;points=[];fontSize=36;" parent="155" vertex="1" connectable="0">
                    <mxGeometry x="-0.6221" y="3" relative="1" as="geometry">
                        <mxPoint x="239" y="-61" as="offset"/>
                    </mxGeometry>
                </mxCell>
                <mxCell id="702" style="edgeStyle=none;html=1;entryX=0.917;entryY=-0.004;entryDx=0;entryDy=0;fontSize=36;exitX=1.005;exitY=0.375;exitDx=0;exitDy=0;exitPerimeter=0;entryPerimeter=0;" edge="1" parent="1" source="5" target="110">
                    <mxGeometry relative="1" as="geometry">
                        <Array as="points">
                            <mxPoint x="1280" y="-360"/>
                            <mxPoint x="1280" y="710"/>
                            <mxPoint x="1204" y="780"/>
                        </Array>
                    </mxGeometry>
                </mxCell>
                <mxCell id="703" value="&lt;b&gt;Requests &amp;amp; Preferences&lt;/b&gt;" style="edgeLabel;html=1;align=center;verticalAlign=middle;resizable=0;points=[];fontSize=36;" vertex="1" connectable="0" parent="702">
                    <mxGeometry x="-0.8568" y="-4" relative="1" as="geometry">
                        <mxPoint x="159" y="38" as="offset"/>
                    </mxGeometry>
                </mxCell>
                <mxCell id="704" value="Requests &amp;amp;&lt;br&gt;Preferences" style="edgeLabel;html=1;align=center;verticalAlign=middle;resizable=0;points=[];fontSize=36;" vertex="1" connectable="0" parent="702">
                    <mxGeometry x="0.9129" y="2" relative="1" as="geometry">
                        <mxPoint x="-76" y="-138" as="offset"/>
                    </mxGeometry>
                </mxCell>
                <mxCell id="5" value="&lt;font style=&quot;font-size: 72px;&quot;&gt;CUSTOMER&lt;/font&gt;" style="shape=cube;whiteSpace=wrap;html=1;boundedLbl=1;backgroundOutline=1;darkOpacity=0.05;darkOpacity2=0.1;" parent="1" vertex="1">
                    <mxGeometry x="-132.96" y="-510.83" width="632.96" height="360" as="geometry"/>
                </mxCell>
                <mxCell id="64" style="edgeStyle=none;html=1;entryX=0;entryY=0.5;entryDx=0;entryDy=0;exitX=0.75;exitY=0;exitDx=0;exitDy=0;fontStyle=1" parent="1" source="6" target="48" edge="1">
                    <mxGeometry relative="1" as="geometry">
                        <mxPoint x="300" y="190" as="sourcePoint"/>
                        <mxPoint x="520" y="160" as="targetPoint"/>
                        <Array as="points">
                            <mxPoint x="410" y="-25"/>
                        </Array>
                    </mxGeometry>
                </mxCell>
                <mxCell id="305" value="&lt;font style=&quot;font-size: 36px;&quot;&gt;&lt;b&gt;Questions&lt;/b&gt;&lt;/font&gt;" style="edgeLabel;html=1;align=center;verticalAlign=middle;resizable=0;points=[];fontSize=24;" parent="64" vertex="1" connectable="0">
                    <mxGeometry x="-0.3272" y="-1" relative="1" as="geometry">
                        <mxPoint x="85" y="-42" as="offset"/>
                    </mxGeometry>
                </mxCell>
                <mxCell id="69" value="&lt;font style=&quot;font-size: 48px;&quot;&gt;Questions&lt;/font&gt;" style="edgeStyle=none;html=1;entryX=0.338;entryY=-0.007;entryDx=0;entryDy=0;entryPerimeter=0;exitX=0.413;exitY=1.01;exitDx=0;exitDy=0;fontStyle=1;exitPerimeter=0;" parent="1" source="6" target="37" edge="1">
                    <mxGeometry x="0.0327" y="-127" relative="1" as="geometry">
                        <mxPoint as="offset"/>
                    </mxGeometry>
                </mxCell>
                <mxCell id="97" style="edgeStyle=none;html=1;exitX=0.559;exitY=-0.001;exitDx=0;exitDy=0;entryX=0.669;entryY=1.001;entryDx=0;entryDy=0;entryPerimeter=0;fontStyle=1;exitPerimeter=0;" parent="1" source="6" target="5" edge="1">
                    <mxGeometry relative="1" as="geometry"/>
                </mxCell>
                <mxCell id="460" value="&lt;font style=&quot;font-size: 36px;&quot;&gt;&lt;b&gt;feedback&lt;/b&gt;&lt;/font&gt;" style="edgeLabel;html=1;align=center;verticalAlign=middle;resizable=0;points=[];fontSize=24;" parent="97" vertex="1" connectable="0">
                    <mxGeometry x="-0.5607" y="2" relative="1" as="geometry">
                        <mxPoint x="22" y="-80" as="offset"/>
                    </mxGeometry>
                </mxCell>
                <mxCell id="6" value="&lt;font style=&quot;font-size: 36px;&quot;&gt;Contact with business management&lt;/font&gt;" style="rounded=1;whiteSpace=wrap;html=1;fontSize=24;" parent="1" vertex="1">
                    <mxGeometry x="24" y="30" width="476" height="160" as="geometry"/>
                </mxCell>
                <mxCell id="7" value="" style="endArrow=none;html=1;fontSize=24;exitX=0;exitY=0.25;exitDx=0;exitDy=0;entryX=1;entryY=0.25;entryDx=0;entryDy=0;fontStyle=1" parent="1" source="6" target="6" edge="1">
                    <mxGeometry width="50" height="50" relative="1" as="geometry">
                        <mxPoint x="190" y="600" as="sourcePoint"/>
                        <mxPoint x="240" y="550" as="targetPoint"/>
                    </mxGeometry>
                </mxCell>
                <mxCell id="441" value="&lt;font style=&quot;font-size: 24px;&quot;&gt;1.0&lt;/font&gt;" style="edgeLabel;html=1;align=center;verticalAlign=middle;resizable=0;points=[];" parent="7" vertex="1" connectable="0">
                    <mxGeometry x="-0.4935" y="-1" relative="1" as="geometry">
                        <mxPoint x="-50" y="-21" as="offset"/>
                    </mxGeometry>
                </mxCell>
                <mxCell id="184" style="edgeStyle=none;html=1;entryX=0;entryY=0.25;entryDx=0;entryDy=0;exitX=1;exitY=0.25;exitDx=0;exitDy=0;fontStyle=1" parent="1" source="8" target="160" edge="1">
                    <mxGeometry relative="1" as="geometry">
                        <mxPoint x="1110" y="3200" as="sourcePoint"/>
                        <mxPoint x="2070" y="2040" as="targetPoint"/>
                        <Array as="points">
                            <mxPoint x="1220" y="3230"/>
                            <mxPoint x="1270" y="3000"/>
                            <mxPoint x="1880" y="2990"/>
                            <mxPoint x="1880" y="2060"/>
                        </Array>
                    </mxGeometry>
                </mxCell>
                <mxCell id="238" value="&lt;font style=&quot;font-size: 48px;&quot;&gt;&lt;b style=&quot;&quot;&gt;Schedule&lt;/b&gt;&lt;/font&gt;" style="edgeLabel;html=1;align=center;verticalAlign=middle;resizable=0;points=[];fontSize=24;" parent="184" vertex="1" connectable="0">
                    <mxGeometry x="-0.5975" y="1" relative="1" as="geometry">
                        <mxPoint x="-6" y="13" as="offset"/>
                    </mxGeometry>
                </mxCell>
                <mxCell id="276" value="&lt;b style=&quot;font-size: 48px;&quot;&gt;Schedule&lt;/b&gt;" style="edgeLabel;html=1;align=center;verticalAlign=middle;resizable=0;points=[];fontSize=24;" parent="184" vertex="1" connectable="0">
                    <mxGeometry x="0.8869" y="-3" relative="1" as="geometry">
                        <mxPoint x="-70" y="-41" as="offset"/>
                    </mxGeometry>
                </mxCell>
                <mxCell id="216" style="edgeStyle=none;html=1;fontSize=24;exitX=0.174;exitY=-0.008;exitDx=0;exitDy=0;exitPerimeter=0;entryX=1;entryY=0.632;entryDx=0;entryDy=0;entryPerimeter=0;fontStyle=1" parent="1" source="8" target="53" edge="1">
                    <mxGeometry relative="1" as="geometry">
                        <mxPoint x="690" y="3240" as="sourcePoint"/>
                        <mxPoint x="450" y="1790" as="targetPoint"/>
                        <Array as="points">
                            <mxPoint x="700" y="1950"/>
                        </Array>
                    </mxGeometry>
                </mxCell>
                <mxCell id="217" value="&lt;b style=&quot;font-size: 48px;&quot;&gt;Available&lt;br&gt;Rooms&lt;/b&gt;" style="edgeLabel;html=1;align=center;verticalAlign=middle;resizable=0;points=[];fontSize=24;" parent="216" vertex="1" connectable="0">
                    <mxGeometry x="0.6632" y="3" relative="1" as="geometry">
                        <mxPoint x="-92" as="offset"/>
                    </mxGeometry>
                </mxCell>
                <mxCell id="479" value="&lt;font style=&quot;font-size: 48px;&quot;&gt;&lt;b&gt;Available&lt;br&gt;Rooms&lt;/b&gt;&lt;/font&gt;" style="edgeLabel;html=1;align=center;verticalAlign=middle;resizable=0;points=[];fontSize=24;" parent="216" vertex="1" connectable="0">
                    <mxGeometry x="-0.7768" y="3" relative="1" as="geometry">
                        <mxPoint x="61" y="43" as="offset"/>
                    </mxGeometry>
                </mxCell>
                <mxCell id="8" value="&lt;font style=&quot;font-size: 36px;&quot;&gt;RECORD BOOK&lt;/font&gt;" style="rounded=0;whiteSpace=wrap;html=1;fontSize=24;" parent="1" vertex="1">
                    <mxGeometry x="640" y="3250" width="493.12" height="140" as="geometry"/>
                </mxCell>
                <mxCell id="9" value="" style="endArrow=none;html=1;fontSize=24;exitX=0.155;exitY=-0.002;exitDx=0;exitDy=0;exitPerimeter=0;entryX=0.152;entryY=1.011;entryDx=0;entryDy=0;entryPerimeter=0;fontStyle=1" parent="1" source="8" target="8" edge="1">
                    <mxGeometry width="50" height="50" relative="1" as="geometry">
                        <mxPoint x="-558.28" y="2980.58" as="sourcePoint"/>
                        <mxPoint x="-508.28000000000003" y="2930.58" as="targetPoint"/>
                    </mxGeometry>
                </mxCell>
                <mxCell id="13" value="" style="rounded=0;whiteSpace=wrap;html=1;fontSize=24;" parent="1" vertex="1">
                    <mxGeometry x="-140" y="3160" width="580" height="170" as="geometry"/>
                </mxCell>
                <mxCell id="14" value="" style="endArrow=none;html=1;fontSize=24;exitX=0.155;exitY=-0.002;exitDx=0;exitDy=0;exitPerimeter=0;entryX=0.152;entryY=1.011;entryDx=0;entryDy=0;entryPerimeter=0;fontStyle=1" parent="1" source="13" target="13" edge="1">
                    <mxGeometry width="50" height="50" relative="1" as="geometry">
                        <mxPoint x="247.34" y="3170.7200000000003" as="sourcePoint"/>
                        <mxPoint x="297.34" y="3120.7200000000003" as="targetPoint"/>
                    </mxGeometry>
                </mxCell>
                <mxCell id="652" value="&lt;b style=&quot;&quot;&gt;&lt;font style=&quot;font-size: 48px;&quot;&gt;D2&lt;/font&gt;&lt;/b&gt;" style="edgeLabel;html=1;align=center;verticalAlign=middle;resizable=0;points=[];fontSize=36;" parent="14" vertex="1" connectable="0">
                    <mxGeometry x="-0.5891" y="1" relative="1" as="geometry">
                        <mxPoint x="-51" y="45" as="offset"/>
                    </mxGeometry>
                </mxCell>
                <mxCell id="653" value="&lt;font style=&quot;font-size: 36px;&quot;&gt;&lt;b style=&quot;&quot;&gt;Registration Cards Storage&lt;/b&gt;&lt;/font&gt;" style="edgeLabel;html=1;align=center;verticalAlign=middle;resizable=0;points=[];fontSize=48;" parent="14" vertex="1" connectable="0">
                    <mxGeometry x="-0.7401" y="-2" relative="1" as="geometry">
                        <mxPoint x="242" y="58" as="offset"/>
                    </mxGeometry>
                </mxCell>
                <mxCell id="183" style="edgeStyle=none;html=1;entryX=0.814;entryY=1.005;entryDx=0;entryDy=0;exitX=1;exitY=0.5;exitDx=0;exitDy=0;entryPerimeter=0;fontStyle=1" parent="1" source="15" target="162" edge="1">
                    <mxGeometry relative="1" as="geometry">
                        <Array as="points">
                            <mxPoint x="3130" y="3230"/>
                        </Array>
                    </mxGeometry>
                </mxCell>
                <mxCell id="239" value="&lt;span style=&quot;font-size: 48px;&quot;&gt;Catering Schedule&lt;/span&gt;" style="edgeLabel;html=1;align=center;verticalAlign=middle;resizable=0;points=[];fontSize=24;" parent="183" vertex="1" connectable="0">
                    <mxGeometry x="-0.7964" y="10" relative="1" as="geometry">
                        <mxPoint x="110" y="35" as="offset"/>
                    </mxGeometry>
                </mxCell>
                <mxCell id="262" value="&lt;span style=&quot;font-size: 48px;&quot;&gt;Catering Schedule&lt;/span&gt;" style="edgeLabel;html=1;align=center;verticalAlign=middle;resizable=0;points=[];fontSize=36;" parent="183" vertex="1" connectable="0">
                    <mxGeometry x="0.5887" y="-1" relative="1" as="geometry">
                        <mxPoint x="-21" y="-115" as="offset"/>
                    </mxGeometry>
                </mxCell>
                <mxCell id="15" value="&lt;font style=&quot;font-size: 72px;&quot;&gt;Service Invoice&lt;/font&gt;" style="rounded=0;whiteSpace=wrap;html=1;fontSize=24;" parent="1" vertex="1">
                    <mxGeometry x="1340" y="3200.48" width="770" height="179.52" as="geometry"/>
                </mxCell>
                <mxCell id="16" value="" style="endArrow=none;html=1;fontSize=24;exitX=0.155;exitY=-0.002;exitDx=0;exitDy=0;exitPerimeter=0;entryX=0.152;entryY=1.011;entryDx=0;entryDy=0;entryPerimeter=0;fontStyle=1" parent="1" source="15" target="15" edge="1">
                    <mxGeometry width="50" height="50" relative="1" as="geometry">
                        <mxPoint x="247.34" y="3450.8999999999996" as="sourcePoint"/>
                        <mxPoint x="297.34" y="3400.8999999999996" as="targetPoint"/>
                    </mxGeometry>
                </mxCell>
                <mxCell id="17" value="" style="rounded=1;whiteSpace=wrap;html=1;fontSize=24;" parent="1" vertex="1">
                    <mxGeometry x="-170" y="700" width="490" height="250" as="geometry"/>
                </mxCell>
                <mxCell id="18" value="" style="endArrow=none;html=1;fontSize=24;exitX=0;exitY=0.419;exitDx=0;exitDy=0;entryX=0.999;entryY=0.419;entryDx=0;entryDy=0;exitPerimeter=0;entryPerimeter=0;fontStyle=1" parent="1" source="17" target="17" edge="1">
                    <mxGeometry width="50" height="50" relative="1" as="geometry">
                        <mxPoint x="150" y="730" as="sourcePoint"/>
                        <mxPoint x="200" y="680" as="targetPoint"/>
                    </mxGeometry>
                </mxCell>
                <mxCell id="443" value="&lt;font style=&quot;font-size: 36px;&quot;&gt;3.0&lt;/font&gt;" style="edgeLabel;html=1;align=center;verticalAlign=middle;resizable=0;points=[];fontSize=24;" parent="18" vertex="1" connectable="0">
                    <mxGeometry x="-0.6495" y="4" relative="1" as="geometry">
                        <mxPoint x="-26" y="-20" as="offset"/>
                    </mxGeometry>
                </mxCell>
                <mxCell id="643" value="&lt;font style=&quot;font-size: 48px;&quot;&gt;&lt;b&gt;Start a transaction&lt;/b&gt;&lt;/font&gt;" style="edgeLabel;html=1;align=center;verticalAlign=middle;resizable=0;points=[];fontSize=36;" parent="18" vertex="1" connectable="0">
                    <mxGeometry x="-0.1716" y="2" relative="1" as="geometry">
                        <mxPoint x="26" y="43" as="offset"/>
                    </mxGeometry>
                </mxCell>
                <mxCell id="125" style="edgeStyle=none;html=1;fontSize=36;exitX=0.478;exitY=-0.018;exitDx=0;exitDy=0;exitPerimeter=0;fontStyle=1;entryX=0.006;entryY=0.336;entryDx=0;entryDy=0;entryPerimeter=0;" parent="1" source="26" target="5" edge="1">
                    <mxGeometry relative="1" as="geometry">
                        <Array as="points">
                            <mxPoint x="-670" y="-320"/>
                        </Array>
                        <mxPoint x="-645" y="830" as="sourcePoint"/>
                        <mxPoint x="-666.3199999999997" y="276.9199999999996" as="targetPoint"/>
                    </mxGeometry>
                </mxCell>
                <mxCell id="242" value="&lt;font style=&quot;&quot;&gt;&lt;font style=&quot;font-size: 48px;&quot;&gt;&lt;b&gt;availability&lt;/b&gt;&lt;/font&gt;&lt;br&gt;&lt;/font&gt;" style="edgeLabel;html=1;align=center;verticalAlign=middle;resizable=0;points=[];" parent="125" vertex="1" connectable="0">
                    <mxGeometry x="-0.0646" relative="1" as="geometry">
                        <mxPoint x="28" y="426" as="offset"/>
                    </mxGeometry>
                </mxCell>
                <mxCell id="126" style="edgeStyle=none;html=1;fontSize=36;entryX=0.472;entryY=-0.019;entryDx=0;entryDy=0;entryPerimeter=0;fontStyle=1" parent="1" source="26" target="106" edge="1">
                    <mxGeometry relative="1" as="geometry"/>
                </mxCell>
                <mxCell id="297" value="&lt;b&gt;Preferences&lt;/b&gt;" style="edgeLabel;html=1;align=center;verticalAlign=middle;resizable=0;points=[];fontSize=36;" parent="126" vertex="1" connectable="0">
                    <mxGeometry x="-0.3226" relative="1" as="geometry">
                        <mxPoint x="16" y="23" as="offset"/>
                    </mxGeometry>
                </mxCell>
                <mxCell id="26" value="&lt;font style=&quot;font-size: 36px;&quot;&gt;Avail Breakfast Combo&lt;/font&gt;" style="rounded=1;whiteSpace=wrap;html=1;fontSize=24;" parent="1" vertex="1">
                    <mxGeometry x="-850" y="1240" width="390" height="200" as="geometry"/>
                </mxCell>
                <mxCell id="27" value="" style="endArrow=none;html=1;fontSize=24;exitX=-0.002;exitY=0.327;exitDx=0;exitDy=0;entryX=0.998;entryY=0.307;entryDx=0;entryDy=0;entryPerimeter=0;exitPerimeter=0;fontStyle=1" parent="1" source="26" target="26" edge="1">
                    <mxGeometry width="50" height="50" relative="1" as="geometry">
                        <mxPoint x="-190" y="900" as="sourcePoint"/>
                        <mxPoint x="-140" y="850" as="targetPoint"/>
                    </mxGeometry>
                </mxCell>
                <mxCell id="489" value="&lt;font style=&quot;font-size: 36px;&quot;&gt;&lt;b style=&quot;&quot;&gt;5.2&lt;/b&gt;&lt;/font&gt;" style="edgeLabel;html=1;align=center;verticalAlign=middle;resizable=0;points=[];" parent="27" vertex="1" connectable="0">
                    <mxGeometry x="-0.7917" y="6" relative="1" as="geometry">
                        <mxPoint x="16" y="-29" as="offset"/>
                    </mxGeometry>
                </mxCell>
                <mxCell id="67" style="edgeStyle=none;html=1;entryX=0.75;entryY=1;entryDx=0;entryDy=0;exitX=0.738;exitY=0.008;exitDx=0;exitDy=0;exitPerimeter=0;fontStyle=1" parent="1" source="28" target="48" edge="1">
                    <mxGeometry relative="1" as="geometry">
                        <mxPoint x="860" y="470" as="sourcePoint"/>
                    </mxGeometry>
                </mxCell>
                <mxCell id="313" value="Business&amp;nbsp;&lt;br&gt;Information" style="edgeLabel;html=1;align=center;verticalAlign=middle;resizable=0;points=[];fontSize=36;" parent="67" vertex="1" connectable="0">
                    <mxGeometry x="-0.1125" relative="1" as="geometry">
                        <mxPoint x="-37" y="-15" as="offset"/>
                    </mxGeometry>
                </mxCell>
                <mxCell id="144" style="edgeStyle=none;html=1;entryX=0.5;entryY=0;entryDx=0;entryDy=0;fontSize=36;exitX=0.309;exitY=1.01;exitDx=0;exitDy=0;exitPerimeter=0;fontStyle=1" parent="1" source="28" target="110" edge="1">
                    <mxGeometry relative="1" as="geometry">
                        <Array as="points"/>
                        <mxPoint x="1144.9203200000002" y="788.0499999999997" as="targetPoint"/>
                    </mxGeometry>
                </mxCell>
                <mxCell id="307" value="&lt;font style=&quot;font-size: 36px;&quot;&gt;&lt;b&gt;Credentials&amp;nbsp;&lt;/b&gt;&lt;br&gt;&lt;/font&gt;" style="edgeLabel;html=1;align=center;verticalAlign=middle;resizable=0;points=[];fontSize=48;" parent="144" vertex="1" connectable="0">
                    <mxGeometry x="-0.1057" y="6" relative="1" as="geometry">
                        <mxPoint x="-59" y="-25" as="offset"/>
                    </mxGeometry>
                </mxCell>
                <mxCell id="28" value="&lt;font style=&quot;&quot;&gt;&lt;font style=&quot;font-size: 36px;&quot;&gt;Front Desk Counter Officer&lt;/font&gt;&lt;br&gt;&lt;/font&gt;" style="shape=cube;whiteSpace=wrap;html=1;boundedLbl=1;backgroundOutline=1;darkOpacity=0.05;darkOpacity2=0.1;" parent="1" vertex="1">
                    <mxGeometry x="716.56" y="290" width="510" height="240" as="geometry"/>
                </mxCell>
                <mxCell id="138" style="edgeStyle=none;html=1;fontSize=36;exitX=-0.003;exitY=0.817;exitDx=0;exitDy=0;exitPerimeter=0;entryX=1.001;entryY=0.559;entryDx=0;entryDy=0;entryPerimeter=0;fontStyle=1" parent="1" source="29" target="134" edge="1">
                    <mxGeometry relative="1" as="geometry">
                        <mxPoint x="1230" y="2225" as="targetPoint"/>
                        <Array as="points">
                            <mxPoint x="1490" y="1070"/>
                            <mxPoint x="1500" y="2230"/>
                        </Array>
                    </mxGeometry>
                </mxCell>
                <mxCell id="215" value="&lt;span style=&quot;font-size: 36px;&quot;&gt;Owner&amp;nbsp;&lt;/span&gt;&lt;br style=&quot;font-size: 36px;&quot;&gt;&lt;span style=&quot;font-size: 36px;&quot;&gt;Approval&lt;/span&gt;" style="edgeLabel;html=1;align=center;verticalAlign=middle;resizable=0;points=[];" parent="138" vertex="1" connectable="0">
                    <mxGeometry x="0.3558" y="-1" relative="1" as="geometry">
                        <mxPoint x="34" y="170" as="offset"/>
                    </mxGeometry>
                </mxCell>
                <mxCell id="332" value="&lt;span style=&quot;font-size: 36px;&quot;&gt;&lt;b&gt;Owner&amp;nbsp;&lt;br&gt;Approval&lt;/b&gt;&lt;br&gt;&lt;/span&gt;" style="edgeLabel;html=1;align=center;verticalAlign=middle;resizable=0;points=[];fontSize=24;" parent="138" vertex="1" connectable="0">
                    <mxGeometry x="-0.8065" y="4" relative="1" as="geometry">
                        <mxPoint x="-30" y="-60" as="offset"/>
                    </mxGeometry>
                </mxCell>
                <mxCell id="571" style="edgeStyle=none;html=1;entryX=0.446;entryY=1.008;entryDx=0;entryDy=0;entryPerimeter=0;fontSize=36;exitX=0.334;exitY=-0.002;exitDx=0;exitDy=0;exitPerimeter=0;fontStyle=1" parent="1" source="29" target="555" edge="1">
                    <mxGeometry relative="1" as="geometry"/>
                </mxCell>
                <mxCell id="602" value="&lt;font style=&quot;font-size: 36px;&quot;&gt;Approval and Validation of Consumed Resources&lt;/font&gt;" style="edgeLabel;html=1;align=center;verticalAlign=middle;resizable=0;points=[];fontSize=24;" parent="571" vertex="1" connectable="0">
                    <mxGeometry x="0.6663" y="-1" relative="1" as="geometry">
                        <mxPoint x="332" y="16" as="offset"/>
                    </mxGeometry>
                </mxCell>
                <mxCell id="29" value="&lt;font style=&quot;&quot;&gt;&lt;font style=&quot;font-size: 36px;&quot;&gt;Business Owner&lt;/font&gt;&lt;br&gt;&lt;/font&gt;" style="shape=cube;whiteSpace=wrap;html=1;boundedLbl=1;backgroundOutline=1;darkOpacity=0.05;darkOpacity2=0.1;" parent="1" vertex="1">
                    <mxGeometry x="1820" y="870" width="320" height="210" as="geometry"/>
                </mxCell>
                <mxCell id="139" style="edgeStyle=none;html=1;entryX=1.003;entryY=0.844;entryDx=0;entryDy=0;fontSize=36;exitX=0.145;exitY=1.018;exitDx=0;exitDy=0;exitPerimeter=0;fontStyle=1;entryPerimeter=0;" parent="1" source="31" target="134" edge="1">
                    <mxGeometry relative="1" as="geometry">
                        <Array as="points">
                            <mxPoint x="1747" y="2359"/>
                        </Array>
                    </mxGeometry>
                </mxCell>
                <mxCell id="289" value="&lt;span style=&quot;font-size: 36px;&quot;&gt;Employee&amp;nbsp;&lt;br&gt;Credentials&lt;br&gt;&lt;/span&gt;" style="edgeLabel;html=1;align=center;verticalAlign=middle;resizable=0;points=[];fontSize=24;" parent="139" vertex="1" connectable="0">
                    <mxGeometry x="0.7005" y="3" relative="1" as="geometry">
                        <mxPoint x="88" y="22" as="offset"/>
                    </mxGeometry>
                </mxCell>
                <mxCell id="181" style="edgeStyle=none;html=1;entryX=0;entryY=0.75;entryDx=0;entryDy=0;exitX=1.002;exitY=0.759;exitDx=0;exitDy=0;exitPerimeter=0;fontStyle=1" parent="1" source="31" target="177" edge="1">
                    <mxGeometry relative="1" as="geometry"/>
                </mxCell>
                <mxCell id="280" value="&lt;font style=&quot;&quot;&gt;&lt;span style=&quot;font-size: 36px;&quot;&gt;&lt;b&gt;Status Report&lt;/b&gt;&lt;/span&gt;&lt;br&gt;&lt;/font&gt;" style="edgeLabel;html=1;align=center;verticalAlign=middle;resizable=0;points=[];fontSize=24;" parent="181" vertex="1" connectable="0">
                    <mxGeometry x="-0.5411" y="-1" relative="1" as="geometry">
                        <mxPoint x="60" y="90" as="offset"/>
                    </mxGeometry>
                </mxCell>
                <mxCell id="515" style="edgeStyle=none;html=1;entryX=0.323;entryY=1.01;entryDx=0;entryDy=0;fontSize=24;fillColor=#FFFFFF;entryPerimeter=0;fontStyle=1" parent="1" source="31" target="507" edge="1">
                    <mxGeometry relative="1" as="geometry">
                        <Array as="points">
                            <mxPoint x="2020" y="1160"/>
                            <mxPoint x="2470" y="1160"/>
                            <mxPoint x="2529" y="1030"/>
                        </Array>
                    </mxGeometry>
                </mxCell>
                <mxCell id="521" value="&lt;font style=&quot;font-size: 36px;&quot;&gt;Orders and Instructions&lt;/font&gt;" style="edgeLabel;html=1;align=center;verticalAlign=middle;resizable=0;points=[];fontSize=24;" parent="515" vertex="1" connectable="0">
                    <mxGeometry x="-0.521" y="7" relative="1" as="geometry">
                        <mxPoint x="243" y="-6" as="offset"/>
                    </mxGeometry>
                </mxCell>
                <mxCell id="31" value="&lt;font style=&quot;&quot;&gt;&lt;font style=&quot;font-size: 36px;&quot;&gt;Management Officer&lt;/font&gt;&lt;br&gt;&lt;/font&gt;" style="shape=cube;whiteSpace=wrap;html=1;boundedLbl=1;backgroundOutline=1;darkOpacity=0.05;darkOpacity2=0.1;" parent="1" vertex="1">
                    <mxGeometry x="1680" y="1400" width="460" height="209.82" as="geometry"/>
                </mxCell>
                <mxCell id="72" style="edgeStyle=none;html=1;exitX=0.654;exitY=1;exitDx=0;exitDy=0;entryX=0.579;entryY=-0.004;entryDx=0;entryDy=0;entryPerimeter=0;fontStyle=1;exitPerimeter=0;" parent="1" source="17" target="46" edge="1">
                    <mxGeometry relative="1" as="geometry">
                        <mxPoint x="99.07000000000016" y="1050" as="targetPoint"/>
                        <mxPoint x="157.5" y="1080" as="sourcePoint"/>
                    </mxGeometry>
                </mxCell>
                <mxCell id="292" value="&lt;font style=&quot;font-size: 36px;&quot;&gt;Room Lodging Choice&lt;/font&gt;" style="edgeLabel;html=1;align=center;verticalAlign=middle;resizable=0;points=[];fontSize=24;" parent="72" vertex="1" connectable="0">
                    <mxGeometry x="-0.3224" y="1" relative="1" as="geometry">
                        <mxPoint x="-2" y="58" as="offset"/>
                    </mxGeometry>
                </mxCell>
                <mxCell id="75" style="edgeStyle=none;html=1;entryX=0.75;entryY=0;entryDx=0;entryDy=0;exitX=0;exitY=0.75;exitDx=0;exitDy=0;fontStyle=1" parent="1" source="17" target="26" edge="1">
                    <mxGeometry relative="1" as="geometry">
                        <Array as="points">
                            <mxPoint x="-540" y="920"/>
                        </Array>
                        <mxPoint x="-180" y="1000" as="sourcePoint"/>
                    </mxGeometry>
                </mxCell>
                <mxCell id="294" value="&lt;font style=&quot;font-size: 36px;&quot;&gt;Breakfast&amp;nbsp;&lt;br&gt;Combo&amp;nbsp;&lt;br&gt;Choice&lt;/font&gt;" style="edgeLabel;html=1;align=center;verticalAlign=middle;resizable=0;points=[];fontSize=24;" parent="75" vertex="1" connectable="0">
                    <mxGeometry x="-0.336" y="-1" relative="1" as="geometry">
                        <mxPoint x="-151" y="133" as="offset"/>
                    </mxGeometry>
                </mxCell>
                <mxCell id="76" style="edgeStyle=none;html=1;fontStyle=1;exitX=1;exitY=0.5;exitDx=0;exitDy=0;entryX=0.25;entryY=0;entryDx=0;entryDy=0;" parent="1" source="17" target="110" edge="1">
                    <mxGeometry relative="1" as="geometry">
                        <mxPoint x="920" y="1080" as="targetPoint"/>
                        <Array as="points">
                            <mxPoint x="660" y="840"/>
                        </Array>
                        <mxPoint x="270" y="960" as="sourcePoint"/>
                    </mxGeometry>
                </mxCell>
                <mxCell id="293" value="&lt;font style=&quot;font-size: 36px;&quot;&gt;Catering Service Choice&lt;/font&gt;" style="edgeLabel;html=1;align=center;verticalAlign=middle;resizable=0;points=[];fontSize=24;" parent="76" vertex="1" connectable="0">
                    <mxGeometry x="-0.4049" relative="1" as="geometry">
                        <mxPoint x="111" y="-47" as="offset"/>
                    </mxGeometry>
                </mxCell>
                <mxCell id="70" value="&lt;font style=&quot;&quot;&gt;&lt;font style=&quot;font-size: 36px;&quot;&gt;Avail Service&lt;/font&gt;&lt;br&gt;&lt;/font&gt;" style="edgeStyle=none;html=1;entryX=0.164;entryY=-0.008;entryDx=0;entryDy=0;entryPerimeter=0;fontStyle=1;exitX=0;exitY=0;exitDx=20;exitDy=360;exitPerimeter=0;" parent="1" source="5" target="17" edge="1">
                    <mxGeometry x="0.8197" y="81" relative="1" as="geometry">
                        <mxPoint y="1" as="offset"/>
                        <mxPoint x="-90" y="-140" as="sourcePoint"/>
                        <Array as="points">
                            <mxPoint x="-100" y="120"/>
                        </Array>
                    </mxGeometry>
                </mxCell>
                <mxCell id="96" style="edgeStyle=none;html=1;entryX=0.647;entryY=1.011;entryDx=0;entryDy=0;exitX=0.5;exitY=0;exitDx=0;exitDy=0;fontStyle=1;entryPerimeter=0;" parent="1" source="37" target="6" edge="1">
                    <mxGeometry relative="1" as="geometry"/>
                </mxCell>
                <mxCell id="231" value="&lt;font style=&quot;font-size: 48px;&quot;&gt;Answers&lt;/font&gt;" style="edgeLabel;html=1;align=center;verticalAlign=middle;resizable=0;points=[];fontSize=24;" parent="96" vertex="1" connectable="0">
                    <mxGeometry x="0.1654" y="-1" relative="1" as="geometry">
                        <mxPoint x="103" y="5" as="offset"/>
                    </mxGeometry>
                </mxCell>
                <mxCell id="37" value="" style="rounded=1;whiteSpace=wrap;html=1;fontSize=24;" parent="1" vertex="1">
                    <mxGeometry x="24" y="320" width="560.62" height="220" as="geometry"/>
                </mxCell>
                <mxCell id="38" value="" style="endArrow=none;html=1;fontSize=24;exitX=0;exitY=0.25;exitDx=0;exitDy=0;entryX=1;entryY=0.25;entryDx=0;entryDy=0;fontStyle=1" parent="1" source="37" target="37" edge="1">
                    <mxGeometry width="50" height="50" relative="1" as="geometry">
                        <mxPoint x="-190" y="730" as="sourcePoint"/>
                        <mxPoint x="-140" y="680" as="targetPoint"/>
                    </mxGeometry>
                </mxCell>
                <mxCell id="442" value="&lt;font style=&quot;font-size: 36px;&quot;&gt;&lt;b&gt;2.0&lt;/b&gt;&lt;/font&gt;" style="edgeLabel;html=1;align=center;verticalAlign=middle;resizable=0;points=[];fontSize=24;" parent="38" vertex="1" connectable="0">
                    <mxGeometry x="-0.224" y="2" relative="1" as="geometry">
                        <mxPoint x="-147" y="-23" as="offset"/>
                    </mxGeometry>
                </mxCell>
                <mxCell id="644" value="&lt;b&gt;&lt;font style=&quot;font-size: 48px;&quot;&gt;Services Inquiry&lt;/font&gt;&lt;/b&gt;" style="edgeLabel;html=1;align=center;verticalAlign=middle;resizable=0;points=[];fontSize=36;" parent="38" vertex="1" connectable="0">
                    <mxGeometry x="-0.1498" y="2" relative="1" as="geometry">
                        <mxPoint x="28" y="65" as="offset"/>
                    </mxGeometry>
                </mxCell>
                <mxCell id="40" value="" style="endArrow=none;html=1;fontSize=24;exitX=0;exitY=0.25;exitDx=0;exitDy=0;entryX=1;entryY=0.25;entryDx=0;entryDy=0;fontStyle=1" parent="1" edge="1">
                    <mxGeometry width="50" height="50" relative="1" as="geometry">
                        <mxPoint x="-1080" y="-2.5" as="sourcePoint"/>
                        <mxPoint x="-470" y="-2.5" as="targetPoint"/>
                    </mxGeometry>
                </mxCell>
                <mxCell id="154" style="edgeStyle=none;html=1;fontSize=36;exitX=-0.002;exitY=0.531;exitDx=0;exitDy=0;fontStyle=1;exitPerimeter=0;" parent="1" source="46" target="5" edge="1">
                    <mxGeometry relative="1" as="geometry">
                        <Array as="points">
                            <mxPoint x="-230" y="1300"/>
                            <mxPoint x="-230" y="-220"/>
                        </Array>
                        <mxPoint x="-100" y="1300" as="sourcePoint"/>
                        <mxPoint x="-314.6399999999999" y="278.3600000000001" as="targetPoint"/>
                    </mxGeometry>
                </mxCell>
                <mxCell id="225" value="&lt;font style=&quot;&quot;&gt;&lt;span style=&quot;background-color: rgb(42, 37, 47);&quot;&gt;&lt;font style=&quot;font-size: 48px;&quot;&gt;&lt;b&gt;Rooms&amp;nbsp;&lt;br&gt;price&lt;/b&gt;&lt;/font&gt;&lt;br&gt;&lt;/span&gt;&lt;/font&gt;" style="edgeLabel;html=1;align=center;verticalAlign=middle;resizable=0;points=[];fontSize=24;" parent="154" vertex="1" connectable="0">
                    <mxGeometry x="-0.4618" y="-1" relative="1" as="geometry">
                        <mxPoint x="-15" y="-747" as="offset"/>
                    </mxGeometry>
                </mxCell>
                <mxCell id="286" style="edgeStyle=none;html=1;fontSize=30;entryX=0.5;entryY=0;entryDx=0;entryDy=0;exitX=0.5;exitY=1;exitDx=0;exitDy=0;fontStyle=1" parent="1" source="46" target="53" edge="1">
                    <mxGeometry relative="1" as="geometry">
                        <mxPoint x="-159.9999999999999" y="1640" as="targetPoint"/>
                        <mxPoint x="-213.39462000000037" y="1500.81" as="sourcePoint"/>
                        <Array as="points"/>
                    </mxGeometry>
                </mxCell>
                <mxCell id="287" value="&lt;b style=&quot;&quot;&gt;&lt;font style=&quot;font-size: 48px;&quot;&gt;Preferences&lt;/font&gt;&lt;/b&gt;" style="edgeLabel;html=1;align=center;verticalAlign=middle;resizable=0;points=[];fontSize=30;" parent="286" vertex="1" connectable="0">
                    <mxGeometry x="-0.1279" y="-1" relative="1" as="geometry">
                        <mxPoint x="50" y="9" as="offset"/>
                    </mxGeometry>
                </mxCell>
                <mxCell id="46" value="&lt;b style=&quot;&quot;&gt;&lt;font style=&quot;font-size: 48px;&quot;&gt;Room Lodging &lt;br&gt;Details Inquiries&lt;/font&gt;&lt;/b&gt;" style="rounded=1;whiteSpace=wrap;html=1;fontSize=24;" parent="1" vertex="1">
                    <mxGeometry x="-142.48999999999998" y="1190" width="510" height="220" as="geometry"/>
                </mxCell>
                <mxCell id="47" value="" style="endArrow=none;html=1;fontSize=24;exitX=0;exitY=0.25;exitDx=0;exitDy=0;entryX=1;entryY=0.25;entryDx=0;entryDy=0;fontStyle=1" parent="1" source="46" target="46" edge="1">
                    <mxGeometry width="50" height="50" relative="1" as="geometry">
                        <mxPoint x="140" y="1270" as="sourcePoint"/>
                        <mxPoint x="190" y="1220" as="targetPoint"/>
                    </mxGeometry>
                </mxCell>
                <mxCell id="445" value="&lt;font style=&quot;font-size: 48px;&quot;&gt;5.0&lt;/font&gt;" style="edgeLabel;html=1;align=center;verticalAlign=middle;resizable=0;points=[];fontSize=24;" parent="47" vertex="1" connectable="0">
                    <mxGeometry x="-0.5914" y="6" relative="1" as="geometry">
                        <mxPoint x="-34" y="-29" as="offset"/>
                    </mxGeometry>
                </mxCell>
                <mxCell id="65" style="edgeStyle=none;html=1;entryX=0.139;entryY=0.002;entryDx=0;entryDy=0;entryPerimeter=0;exitX=0.122;exitY=1.015;exitDx=0;exitDy=0;exitPerimeter=0;fontStyle=1" parent="1" source="48" target="28" edge="1">
                    <mxGeometry relative="1" as="geometry">
                        <mxPoint x="530" y="240" as="sourcePoint"/>
                    </mxGeometry>
                </mxCell>
                <mxCell id="314" value="&lt;font style=&quot;font-size: 36px;&quot;&gt;Customer&lt;br&gt;Inquiry&lt;/font&gt;" style="edgeLabel;html=1;align=center;verticalAlign=middle;resizable=0;points=[];fontSize=24;" parent="65" vertex="1" connectable="0">
                    <mxGeometry x="-0.2113" y="-3" relative="1" as="geometry">
                        <mxPoint x="-16" y="33" as="offset"/>
                    </mxGeometry>
                </mxCell>
                <mxCell id="66" style="edgeStyle=none;html=1;exitX=0.811;exitY=-0.025;exitDx=0;exitDy=0;entryX=1;entryY=0.736;entryDx=0;entryDy=0;entryPerimeter=0;fontStyle=1;exitPerimeter=0;" parent="1" source="48" target="5" edge="1">
                    <mxGeometry relative="1" as="geometry">
                        <Array as="points">
                            <mxPoint x="1130" y="-240"/>
                        </Array>
                    </mxGeometry>
                </mxCell>
                <mxCell id="306" value="&lt;font style=&quot;font-size: 48px;&quot;&gt;&lt;b&gt;Feedback&lt;/b&gt;&lt;/font&gt;" style="edgeLabel;html=1;align=center;verticalAlign=middle;resizable=0;points=[];fontSize=24;" parent="66" vertex="1" connectable="0">
                    <mxGeometry x="0.1447" y="1" relative="1" as="geometry">
                        <mxPoint x="7" y="22" as="offset"/>
                    </mxGeometry>
                </mxCell>
                <mxCell id="48" value="" style="rounded=1;whiteSpace=wrap;html=1;fontSize=24;" parent="1" vertex="1">
                    <mxGeometry x="730" y="-110.5" width="510" height="170" as="geometry"/>
                </mxCell>
                <mxCell id="49" value="" style="endArrow=none;html=1;fontSize=24;entryX=1;entryY=0.297;entryDx=0;entryDy=0;fontStyle=1;exitX=0.001;exitY=0.312;exitDx=0;exitDy=0;exitPerimeter=0;entryPerimeter=0;" parent="1" source="48" target="48" edge="1">
                    <mxGeometry width="50" height="50" relative="1" as="geometry">
                        <mxPoint x="730" y="120" as="sourcePoint"/>
                        <mxPoint x="-722.5" y="740" as="targetPoint"/>
                    </mxGeometry>
                </mxCell>
                <mxCell id="457" value="&lt;font style=&quot;font-size: 36px;&quot;&gt;2.1&lt;/font&gt;" style="edgeLabel;html=1;align=center;verticalAlign=middle;resizable=0;points=[];fontSize=24;" parent="49" vertex="1" connectable="0">
                    <mxGeometry x="-0.8561" y="-1" relative="1" as="geometry">
                        <mxPoint x="10" y="-24" as="offset"/>
                    </mxGeometry>
                </mxCell>
                <mxCell id="646" value="&lt;b style=&quot;&quot;&gt;Inquire for Information&lt;/b&gt;" style="edgeLabel;html=1;align=center;verticalAlign=middle;resizable=0;points=[];fontSize=36;" parent="49" vertex="1" connectable="0">
                    <mxGeometry x="-0.1729" y="2" relative="1" as="geometry">
                        <mxPoint x="46" y="40" as="offset"/>
                    </mxGeometry>
                </mxCell>
                <mxCell id="695" style="edgeStyle=none;html=1;entryX=0.5;entryY=0;entryDx=0;entryDy=0;fontSize=48;" edge="1" parent="1" source="53" target="58">
                    <mxGeometry relative="1" as="geometry"/>
                </mxCell>
                <mxCell id="696" value="&lt;b&gt;Room Details&lt;/b&gt;" style="edgeLabel;html=1;align=center;verticalAlign=middle;resizable=0;points=[];fontSize=48;" vertex="1" connectable="0" parent="695">
                    <mxGeometry x="-0.2398" relative="1" as="geometry">
                        <mxPoint as="offset"/>
                    </mxGeometry>
                </mxCell>
                <mxCell id="53" value="" style="rounded=1;whiteSpace=wrap;html=1;fontSize=24;" parent="1" vertex="1">
                    <mxGeometry x="-145.45" y="1750" width="512.96" height="290" as="geometry"/>
                </mxCell>
                <mxCell id="54" value="" style="endArrow=none;html=1;fontSize=24;exitX=0.001;exitY=0.314;exitDx=0;exitDy=0;entryX=1.001;entryY=0.319;entryDx=0;entryDy=0;fontStyle=1;exitPerimeter=0;entryPerimeter=0;" parent="1" source="53" target="53" edge="1">
                    <mxGeometry width="50" height="50" relative="1" as="geometry">
                        <mxPoint x="145" y="1320" as="sourcePoint"/>
                        <mxPoint x="195" y="1270" as="targetPoint"/>
                    </mxGeometry>
                </mxCell>
                <mxCell id="447" value="&lt;font style=&quot;font-size: 48px;&quot;&gt;6.0&lt;/font&gt;" style="edgeLabel;html=1;align=center;verticalAlign=middle;resizable=0;points=[];fontSize=24;" parent="54" vertex="1" connectable="0">
                    <mxGeometry x="-0.7615" y="2" relative="1" as="geometry">
                        <mxPoint x="-3" y="-28" as="offset"/>
                    </mxGeometry>
                </mxCell>
                <mxCell id="636" value="&lt;b&gt;&lt;font style=&quot;font-size: 48px;&quot;&gt;Find suitable room&amp;nbsp;&lt;/font&gt;&lt;/b&gt;" style="edgeLabel;html=1;align=center;verticalAlign=middle;resizable=0;points=[];fontSize=36;" parent="54" vertex="1" connectable="0">
                    <mxGeometry x="-0.1297" y="-2" relative="1" as="geometry">
                        <mxPoint x="28" y="66" as="offset"/>
                    </mxGeometry>
                </mxCell>
                <mxCell id="153" style="edgeStyle=none;html=1;fontSize=36;exitX=0;exitY=0.75;exitDx=0;exitDy=0;fontStyle=1;entryX=0.001;entryY=0.595;entryDx=0;entryDy=0;entryPerimeter=0;" parent="1" source="53" target="5" edge="1">
                    <mxGeometry relative="1" as="geometry">
                        <Array as="points">
                            <mxPoint x="-310" y="1940"/>
                            <mxPoint x="-370" y="550"/>
                            <mxPoint x="-350" y="-260"/>
                        </Array>
                        <mxPoint x="-130" y="2091.2" as="sourcePoint"/>
                        <mxPoint x="-450" y="300" as="targetPoint"/>
                    </mxGeometry>
                </mxCell>
                <mxCell id="223" value="&lt;b style=&quot;&quot;&gt;&lt;font style=&quot;font-size: 48px;&quot;&gt;Room &lt;br&gt;Details&lt;/font&gt;&lt;/b&gt;" style="edgeLabel;html=1;align=center;verticalAlign=middle;resizable=0;points=[];fontSize=24;" parent="153" vertex="1" connectable="0">
                    <mxGeometry x="-0.7348" relative="1" as="geometry">
                        <mxPoint x="2" y="-62" as="offset"/>
                    </mxGeometry>
                </mxCell>
                <mxCell id="697" value="&lt;b style=&quot;font-size: 36px;&quot;&gt;Room&lt;br&gt;Details&lt;/b&gt;" style="edgeLabel;html=1;align=center;verticalAlign=middle;resizable=0;points=[];fontSize=48;" vertex="1" connectable="0" parent="153">
                    <mxGeometry x="0.8737" y="-1" relative="1" as="geometry">
                        <mxPoint x="-63" y="88" as="offset"/>
                    </mxGeometry>
                </mxCell>
                <mxCell id="92" style="edgeStyle=none;html=1;exitX=0.36;exitY=1.003;exitDx=0;exitDy=0;exitPerimeter=0;fontStyle=1;entryX=0.07;entryY=-0.002;entryDx=0;entryDy=0;entryPerimeter=0;" parent="1" edge="1">
                    <mxGeometry relative="1" as="geometry">
                        <mxPoint x="1.8207657603852567e-13" y="2588.980000000001" as="targetPoint"/>
                        <Array as="points">
                            <mxPoint x="0.20000000000000018" y="2529.4"/>
                        </Array>
                        <mxPoint x="24.833600000000114" y="2460.0000000000005" as="sourcePoint"/>
                    </mxGeometry>
                </mxCell>
                <mxCell id="241" value="&lt;span style=&quot;font-size: 36px;&quot;&gt;&lt;b&gt;final details&lt;/b&gt;&lt;/span&gt;" style="edgeLabel;html=1;align=center;verticalAlign=middle;resizable=0;points=[];fontSize=24;" parent="92" vertex="1" connectable="0">
                    <mxGeometry x="-0.2771" y="1" relative="1" as="geometry">
                        <mxPoint x="106" y="11" as="offset"/>
                    </mxGeometry>
                </mxCell>
                <mxCell id="58" value="" style="rounded=1;whiteSpace=wrap;html=1;fontSize=24;" parent="1" vertex="1">
                    <mxGeometry x="-279.88" y="2250" width="859.76" height="200" as="geometry"/>
                </mxCell>
                <mxCell id="59" value="" style="endArrow=none;html=1;fontSize=24;exitX=0.002;exitY=0.283;exitDx=0;exitDy=0;entryX=0.999;entryY=0.295;entryDx=0;entryDy=0;fontStyle=1;exitPerimeter=0;entryPerimeter=0;" parent="1" source="58" target="58" edge="1">
                    <mxGeometry width="50" height="50" relative="1" as="geometry">
                        <mxPoint x="145" y="1770" as="sourcePoint"/>
                        <mxPoint x="195" y="1720" as="targetPoint"/>
                    </mxGeometry>
                </mxCell>
                <mxCell id="449" value="&lt;font style=&quot;font-size: 36px;&quot;&gt;&lt;b&gt;8.0&lt;/b&gt;&lt;/font&gt;" style="edgeLabel;html=1;align=center;verticalAlign=middle;resizable=0;points=[];fontSize=24;" parent="59" vertex="1" connectable="0">
                    <mxGeometry x="-0.2676" relative="1" as="geometry">
                        <mxPoint x="-181" y="-24" as="offset"/>
                    </mxGeometry>
                </mxCell>
                <mxCell id="634" value="&lt;b&gt;&lt;font style=&quot;font-size: 48px;&quot;&gt;Finalization of room lodging details&lt;/font&gt;&lt;/b&gt;" style="edgeLabel;html=1;align=center;verticalAlign=middle;resizable=0;points=[];fontSize=36;" parent="59" vertex="1" connectable="0">
                    <mxGeometry x="0.0896" relative="1" as="geometry">
                        <mxPoint x="-29" y="62" as="offset"/>
                    </mxGeometry>
                </mxCell>
                <mxCell id="124" style="edgeStyle=none;html=1;fontSize=36;exitX=0;exitY=0.5;exitDx=0;exitDy=0;fontStyle=1;entryX=0;entryY=0;entryDx=0;entryDy=170;entryPerimeter=0;" parent="1" source="58" target="5" edge="1">
                    <mxGeometry relative="1" as="geometry">
                        <Array as="points">
                            <mxPoint x="-370" y="2350"/>
                            <mxPoint x="-440" y="660"/>
                            <mxPoint x="-460" y="170"/>
                            <mxPoint x="-470" y="-290"/>
                        </Array>
                        <mxPoint x="-135" y="2100" as="sourcePoint"/>
                        <mxPoint x="-558.1481481481483" y="275" as="targetPoint"/>
                    </mxGeometry>
                </mxCell>
                <mxCell id="224" value="&lt;span style=&quot;font-size: 36px;&quot;&gt;&lt;b&gt;Final &lt;br&gt;Details&lt;/b&gt;&lt;/span&gt;" style="edgeLabel;html=1;align=center;verticalAlign=middle;resizable=0;points=[];fontSize=24;" parent="124" vertex="1" connectable="0">
                    <mxGeometry x="-0.8002" y="2" relative="1" as="geometry">
                        <mxPoint x="11" y="37" as="offset"/>
                    </mxGeometry>
                </mxCell>
                <mxCell id="698" value="&lt;b style=&quot;font-size: 36px;&quot;&gt;Final&lt;br&gt;Details&lt;/b&gt;" style="edgeLabel;html=1;align=center;verticalAlign=middle;resizable=0;points=[];fontSize=48;" vertex="1" connectable="0" parent="124">
                    <mxGeometry x="0.8286" y="-3" relative="1" as="geometry">
                        <mxPoint x="-77" y="599" as="offset"/>
                    </mxGeometry>
                </mxCell>
                <mxCell id="79" style="edgeStyle=none;html=1;exitX=0.196;exitY=1.002;exitDx=0;exitDy=0;exitPerimeter=0;entryX=0.353;entryY=0;entryDx=0;entryDy=0;entryPerimeter=0;fontStyle=1" parent="1" source="77" target="13" edge="1">
                    <mxGeometry relative="1" as="geometry">
                        <mxPoint x="40" y="3180" as="targetPoint"/>
                    </mxGeometry>
                </mxCell>
                <mxCell id="258" value="&lt;b&gt;Registration&lt;br&gt;&amp;nbsp;Card &lt;br&gt;Copy&lt;/b&gt;" style="edgeLabel;html=1;align=center;verticalAlign=middle;resizable=0;points=[];fontSize=36;" parent="79" vertex="1" connectable="0">
                    <mxGeometry x="0.3549" y="-2" relative="1" as="geometry">
                        <mxPoint x="-50" y="-42" as="offset"/>
                    </mxGeometry>
                </mxCell>
                <mxCell id="80" style="edgeStyle=none;html=1;exitX=0.75;exitY=1;exitDx=0;exitDy=0;entryX=0;entryY=0.5;entryDx=0;entryDy=0;fontStyle=1" parent="1" source="77" target="8" edge="1">
                    <mxGeometry relative="1" as="geometry">
                        <Array as="points">
                            <mxPoint x="520" y="3230"/>
                            <mxPoint x="530" y="3270"/>
                        </Array>
                    </mxGeometry>
                </mxCell>
                <mxCell id="233" value="&lt;font style=&quot;font-size: 48px;&quot;&gt;&lt;b style=&quot;&quot;&gt;Details&lt;/b&gt;&lt;/font&gt;" style="edgeLabel;html=1;align=center;verticalAlign=middle;resizable=0;points=[];fontSize=24;" parent="80" vertex="1" connectable="0">
                    <mxGeometry x="-0.0857" y="5" relative="1" as="geometry">
                        <mxPoint x="45" y="37" as="offset"/>
                    </mxGeometry>
                </mxCell>
                <mxCell id="129" style="edgeStyle=none;html=1;fontSize=36;exitX=0;exitY=0.5;exitDx=0;exitDy=0;entryX=0.565;entryY=0.006;entryDx=0;entryDy=0;entryPerimeter=0;fontStyle=1" parent="1" source="77" target="127" edge="1">
                    <mxGeometry relative="1" as="geometry">
                        <Array as="points">
                            <mxPoint x="-610" y="2800"/>
                        </Array>
                    </mxGeometry>
                </mxCell>
                <mxCell id="248" value="&lt;font style=&quot;font-size: 48px;&quot;&gt;&lt;b&gt;Total Cost&lt;/b&gt;&lt;/font&gt;" style="edgeLabel;html=1;align=center;verticalAlign=middle;resizable=0;points=[];fontSize=30;" parent="129" vertex="1" connectable="0">
                    <mxGeometry x="-0.0203" y="1" relative="1" as="geometry">
                        <mxPoint x="60" y="-1" as="offset"/>
                    </mxGeometry>
                </mxCell>
                <mxCell id="681" style="edgeStyle=none;html=1;fontSize=48;exitX=0;exitY=0.75;exitDx=0;exitDy=0;entryX=0.267;entryY=0;entryDx=0;entryDy=0;entryPerimeter=0;" edge="1" parent="1" source="77" target="348">
                    <mxGeometry relative="1" as="geometry">
                        <Array as="points">
                            <mxPoint x="-220" y="2930"/>
                            <mxPoint x="-220" y="3360"/>
                            <mxPoint x="-624" y="3680"/>
                        </Array>
                    </mxGeometry>
                </mxCell>
                <mxCell id="682" value="&lt;b&gt;&lt;font style=&quot;font-size: 36px;&quot;&gt;Registration&amp;nbsp;&lt;br&gt;Card&lt;/font&gt;&lt;/b&gt;" style="edgeLabel;html=1;align=center;verticalAlign=middle;resizable=0;points=[];fontSize=48;" vertex="1" connectable="0" parent="681">
                    <mxGeometry x="-0.4312" y="4" relative="1" as="geometry">
                        <mxPoint x="-24" y="-70" as="offset"/>
                    </mxGeometry>
                </mxCell>
                <mxCell id="685" value="&lt;b style=&quot;font-size: 48px;&quot;&gt;&lt;font style=&quot;font-size: 36px;&quot;&gt;Registration&amp;nbsp;&lt;br&gt;Card&lt;/font&gt;&lt;/b&gt;" style="edgeLabel;html=1;align=center;verticalAlign=middle;resizable=0;points=[];fontSize=36;" vertex="1" connectable="0" parent="681">
                    <mxGeometry x="0.804" y="4" relative="1" as="geometry">
                        <mxPoint x="-10" y="26" as="offset"/>
                    </mxGeometry>
                </mxCell>
                <mxCell id="77" value="" style="rounded=1;whiteSpace=wrap;html=1;fontSize=24;" parent="1" vertex="1">
                    <mxGeometry x="-40" y="2580" width="640" height="210" as="geometry"/>
                </mxCell>
                <mxCell id="78" value="" style="endArrow=none;html=1;fontSize=24;fontStyle=1;exitX=0;exitY=0.344;exitDx=0;exitDy=0;exitPerimeter=0;entryX=1.002;entryY=0.34;entryDx=0;entryDy=0;entryPerimeter=0;" parent="1" source="77" edge="1" target="77">
                    <mxGeometry width="50" height="50" relative="1" as="geometry">
                        <mxPoint x="-41" y="2676" as="sourcePoint"/>
                        <mxPoint x="670" y="2680" as="targetPoint"/>
                    </mxGeometry>
                </mxCell>
                <mxCell id="450" value="&lt;font style=&quot;font-size: 36px;&quot;&gt;&lt;b&gt;9.0&lt;/b&gt;&lt;/font&gt;" style="edgeLabel;html=1;align=center;verticalAlign=middle;resizable=0;points=[];fontSize=24;" parent="78" vertex="1" connectable="0">
                    <mxGeometry x="-0.5946" y="1" relative="1" as="geometry">
                        <mxPoint x="-74" y="-31" as="offset"/>
                    </mxGeometry>
                </mxCell>
                <mxCell id="651" value="&lt;b&gt;Successful Room Lodging&lt;/b&gt;" style="edgeLabel;html=1;align=center;verticalAlign=middle;resizable=0;points=[];fontSize=36;" parent="78" vertex="1" connectable="0">
                    <mxGeometry x="-0.4314" y="-1" relative="1" as="geometry">
                        <mxPoint x="148" y="55" as="offset"/>
                    </mxGeometry>
                </mxCell>
                <mxCell id="151" style="edgeStyle=none;html=1;fontSize=36;exitX=0.25;exitY=1;exitDx=0;exitDy=0;entryX=0.396;entryY=0.003;entryDx=0;entryDy=0;entryPerimeter=0;fontStyle=1" parent="1" source="106" target="127" edge="1">
                    <mxGeometry relative="1" as="geometry"/>
                </mxCell>
                <mxCell id="257" value="&lt;font style=&quot;font-size: 48px;&quot;&gt;&lt;b&gt;Details&lt;br&gt;&amp;amp; Cost&lt;/b&gt;&lt;/font&gt;" style="edgeLabel;html=1;align=center;verticalAlign=middle;resizable=0;points=[];fontSize=30;" parent="151" vertex="1" connectable="0">
                    <mxGeometry x="0.3867" y="-2" relative="1" as="geometry">
                        <mxPoint x="29" y="-494" as="offset"/>
                    </mxGeometry>
                </mxCell>
                <mxCell id="106" value="&lt;span style=&quot;font-size: 36px;&quot;&gt;&lt;b&gt;Combo Breakfast Variations Selection&lt;/b&gt;&lt;/span&gt;" style="rounded=1;whiteSpace=wrap;html=1;fontSize=24;" parent="1" vertex="1">
                    <mxGeometry x="-850" y="1820" width="390" height="310" as="geometry"/>
                </mxCell>
                <mxCell id="107" value="" style="endArrow=none;html=1;fontSize=24;exitX=0;exitY=0.25;exitDx=0;exitDy=0;entryX=1;entryY=0.25;entryDx=0;entryDy=0;fontStyle=1" parent="1" source="106" target="106" edge="1">
                    <mxGeometry width="50" height="50" relative="1" as="geometry">
                        <mxPoint x="-190" y="1080" as="sourcePoint"/>
                        <mxPoint x="-140" y="1030" as="targetPoint"/>
                    </mxGeometry>
                </mxCell>
                <mxCell id="490" value="&lt;font style=&quot;font-size: 36px;&quot;&gt;&lt;b&gt;6.2&lt;/b&gt;&lt;/font&gt;" style="edgeLabel;html=1;align=center;verticalAlign=middle;resizable=0;points=[];fontSize=24;" parent="107" vertex="1" connectable="0">
                    <mxGeometry x="-0.7222" y="-3" relative="1" as="geometry">
                        <mxPoint x="6" y="-40" as="offset"/>
                    </mxGeometry>
                </mxCell>
                <mxCell id="132" style="edgeStyle=none;html=1;fontSize=36;entryX=-0.004;entryY=0.232;entryDx=0;entryDy=0;entryPerimeter=0;fontStyle=1;exitX=1;exitY=0.25;exitDx=0;exitDy=0;" parent="1" source="110" target="29" edge="1">
                    <mxGeometry relative="1" as="geometry">
                        <Array as="points">
                            <mxPoint x="1470" y="910"/>
                        </Array>
                        <mxPoint x="1830" y="975" as="targetPoint"/>
                        <mxPoint x="1120" y="1080" as="sourcePoint"/>
                    </mxGeometry>
                </mxCell>
                <mxCell id="221" value="&lt;font style=&quot;font-size: 36px;&quot;&gt;&lt;b&gt;Request Summary&lt;/b&gt;&lt;/font&gt;" style="edgeLabel;html=1;align=center;verticalAlign=middle;resizable=0;points=[];fontSize=24;" parent="132" vertex="1" connectable="0">
                    <mxGeometry x="0.4425" y="2" relative="1" as="geometry">
                        <mxPoint x="12" y="-42" as="offset"/>
                    </mxGeometry>
                </mxCell>
                <mxCell id="133" style="edgeStyle=none;html=1;entryX=0.343;entryY=-0.003;entryDx=0;entryDy=0;entryPerimeter=0;fontSize=36;exitX=1.001;exitY=0.806;exitDx=0;exitDy=0;fontStyle=1;exitPerimeter=0;" parent="1" source="110" target="31" edge="1">
                    <mxGeometry relative="1" as="geometry">
                        <Array as="points">
                            <mxPoint x="1836" y="1340"/>
                        </Array>
                    </mxGeometry>
                </mxCell>
                <mxCell id="278" value="&lt;font style=&quot;font-size: 36px;&quot;&gt;&lt;b&gt;Requests&lt;br&gt;Summary&lt;/b&gt;&lt;/font&gt;" style="edgeLabel;html=1;align=center;verticalAlign=middle;resizable=0;points=[];fontSize=24;" parent="133" vertex="1" connectable="0">
                    <mxGeometry x="0.617" y="5" relative="1" as="geometry">
                        <mxPoint x="-75" y="5" as="offset"/>
                    </mxGeometry>
                </mxCell>
                <mxCell id="270" style="edgeStyle=none;html=1;fontSize=36;fontStyle=1;exitX=1;exitY=0.5;exitDx=0;exitDy=0;" parent="1" source="110" target="29" edge="1">
                    <mxGeometry relative="1" as="geometry">
                        <Array as="points">
                            <mxPoint x="1570" y="1180"/>
                            <mxPoint x="1960" y="1200"/>
                        </Array>
                    </mxGeometry>
                </mxCell>
                <mxCell id="271" value="&lt;b&gt;Incoming Catering Order&amp;nbsp;&lt;/b&gt;" style="edgeLabel;html=1;align=center;verticalAlign=middle;resizable=0;points=[];fontSize=36;" parent="270" vertex="1" connectable="0">
                    <mxGeometry x="0.2633" y="2" relative="1" as="geometry">
                        <mxPoint y="-44" as="offset"/>
                    </mxGeometry>
                </mxCell>
                <mxCell id="110" value="" style="rounded=1;whiteSpace=wrap;html=1;fontSize=24;" parent="1" vertex="1">
                    <mxGeometry x="480" y="920" width="790" height="280" as="geometry"/>
                </mxCell>
                <mxCell id="111" value="" style="endArrow=none;html=1;fontSize=24;exitX=-0.004;exitY=0.337;exitDx=0;exitDy=0;fontStyle=1;exitPerimeter=0;entryX=1;entryY=0.289;entryDx=0;entryDy=0;entryPerimeter=0;" parent="1" source="110" target="110" edge="1">
                    <mxGeometry width="50" height="50" relative="1" as="geometry">
                        <mxPoint x="490" y="1090" as="sourcePoint"/>
                        <mxPoint x="1170" y="1080" as="targetPoint"/>
                    </mxGeometry>
                </mxCell>
                <mxCell id="480" value="&lt;font style=&quot;font-size: 48px;&quot;&gt;5.1&lt;/font&gt;" style="edgeLabel;html=1;align=center;verticalAlign=middle;resizable=0;points=[];fontSize=24;" parent="111" vertex="1" connectable="0">
                    <mxGeometry x="-0.7962" y="-2" relative="1" as="geometry">
                        <mxPoint x="22" y="-35" as="offset"/>
                    </mxGeometry>
                </mxCell>
                <mxCell id="647" value="&lt;b&gt;&lt;font style=&quot;font-size: 48px;&quot;&gt;Catering Service Details Inquiry&lt;/font&gt;&lt;/b&gt;" style="edgeLabel;html=1;align=center;verticalAlign=middle;resizable=0;points=[];fontSize=36;" parent="111" vertex="1" connectable="0">
                    <mxGeometry x="0.1237" y="3" relative="1" as="geometry">
                        <mxPoint x="-30" y="91" as="offset"/>
                    </mxGeometry>
                </mxCell>
                <mxCell id="466" style="edgeStyle=none;html=1;entryX=0.25;entryY=0;entryDx=0;entryDy=0;fontSize=24;exitX=0.25;exitY=1;exitDx=0;exitDy=0;fontStyle=1" parent="1" source="110" target="115" edge="1">
                    <mxGeometry relative="1" as="geometry">
                        <mxPoint x="865.1999999999998" y="1629.83" as="sourcePoint"/>
                    </mxGeometry>
                </mxCell>
                <mxCell id="467" value="&lt;font style=&quot;font-size: 36px;&quot;&gt;Customer Requests&lt;br&gt;&lt;/font&gt;" style="edgeLabel;html=1;align=center;verticalAlign=middle;resizable=0;points=[];fontSize=24;" parent="466" vertex="1" connectable="0">
                    <mxGeometry x="-0.2417" relative="1" as="geometry">
                        <mxPoint x="-45" y="17" as="offset"/>
                    </mxGeometry>
                </mxCell>
                <mxCell id="468" style="edgeStyle=none;html=1;fontSize=24;fontStyle=1;exitX=1;exitY=0.75;exitDx=0;exitDy=0;entryX=0.747;entryY=0.002;entryDx=0;entryDy=0;entryPerimeter=0;" parent="1" source="115" target="5" edge="1">
                    <mxGeometry relative="1" as="geometry">
                        <mxPoint x="440" y="-520" as="targetPoint"/>
                        <Array as="points">
                            <mxPoint x="1380" y="1650"/>
                            <mxPoint x="1370" y="-630"/>
                            <mxPoint x="340" y="-630"/>
                        </Array>
                    </mxGeometry>
                </mxCell>
                <mxCell id="469" value="&lt;font style=&quot;font-size: 36px;&quot;&gt;Management Feedback&lt;/font&gt;" style="edgeLabel;html=1;align=center;verticalAlign=middle;resizable=0;points=[];fontSize=24;" parent="468" vertex="1" connectable="0">
                    <mxGeometry x="0.1918" y="1" relative="1" as="geometry">
                        <mxPoint x="-412" y="-350" as="offset"/>
                    </mxGeometry>
                </mxCell>
                <mxCell id="699" style="edgeStyle=none;html=1;entryX=0.5;entryY=0;entryDx=0;entryDy=0;fontSize=48;" edge="1" parent="1" source="115" target="134">
                    <mxGeometry relative="1" as="geometry"/>
                </mxCell>
                <mxCell id="700" value="Negotiated &lt;br&gt;Details" style="edgeLabel;html=1;align=center;verticalAlign=middle;resizable=0;points=[];fontSize=48;" vertex="1" connectable="0" parent="699">
                    <mxGeometry x="-0.2374" y="-2" relative="1" as="geometry">
                        <mxPoint x="1" y="1" as="offset"/>
                    </mxGeometry>
                </mxCell>
                <mxCell id="115" value="&lt;font style=&quot;font-size: 36px;&quot;&gt;&lt;br&gt;&lt;/font&gt;" style="rounded=1;whiteSpace=wrap;html=1;fontSize=24;" parent="1" vertex="1">
                    <mxGeometry x="480" y="1480" width="760" height="270" as="geometry"/>
                </mxCell>
                <mxCell id="116" value="" style="endArrow=none;html=1;fontSize=24;exitX=0;exitY=0.25;exitDx=0;exitDy=0;entryX=1;entryY=0.25;entryDx=0;entryDy=0;fontStyle=1" parent="1" source="115" target="115" edge="1">
                    <mxGeometry width="50" height="50" relative="1" as="geometry">
                        <mxPoint x="490" y="1570" as="sourcePoint"/>
                        <mxPoint x="540" y="1520" as="targetPoint"/>
                    </mxGeometry>
                </mxCell>
                <mxCell id="482" value="&lt;font style=&quot;font-size: 36px;&quot;&gt;7.1&lt;/font&gt;" style="edgeLabel;html=1;align=center;verticalAlign=middle;resizable=0;points=[];fontSize=24;" parent="116" vertex="1" connectable="0">
                    <mxGeometry x="-0.6329" y="-1" relative="1" as="geometry">
                        <mxPoint x="-23" y="-33" as="offset"/>
                    </mxGeometry>
                </mxCell>
                <mxCell id="648" value="&lt;font style=&quot;font-size: 48px;&quot;&gt;&lt;b&gt;Negotiate Specifics &amp;amp; Costs&lt;/b&gt;&lt;/font&gt;" style="edgeLabel;html=1;align=center;verticalAlign=middle;resizable=0;points=[];fontSize=36;" parent="116" vertex="1" connectable="0">
                    <mxGeometry x="-0.1571" y="4" relative="1" as="geometry">
                        <mxPoint x="28" y="82" as="offset"/>
                    </mxGeometry>
                </mxCell>
                <mxCell id="122" style="edgeStyle=none;html=1;entryX=0.841;entryY=0.002;entryDx=0;entryDy=0;fontSize=36;exitX=0.602;exitY=1.021;exitDx=0;exitDy=0;exitPerimeter=0;entryPerimeter=0;fontStyle=1" parent="1" source="117" target="8" edge="1">
                    <mxGeometry relative="1" as="geometry"/>
                </mxCell>
                <mxCell id="240" value="&lt;b style=&quot;&quot;&gt;&lt;font style=&quot;font-size: 48px;&quot;&gt;Details&lt;/font&gt;&lt;/b&gt;" style="edgeLabel;html=1;align=center;verticalAlign=middle;resizable=0;points=[];fontSize=24;" parent="122" vertex="1" connectable="0">
                    <mxGeometry x="0.4197" y="1" relative="1" as="geometry">
                        <mxPoint x="-7" y="35" as="offset"/>
                    </mxGeometry>
                </mxCell>
                <mxCell id="123" style="edgeStyle=none;html=1;entryX=0.5;entryY=0;entryDx=0;entryDy=0;fontSize=36;exitX=1;exitY=0.5;exitDx=0;exitDy=0;fontStyle=1" parent="1" source="117" target="15" edge="1">
                    <mxGeometry relative="1" as="geometry">
                        <Array as="points">
                            <mxPoint x="1570" y="2720"/>
                        </Array>
                    </mxGeometry>
                </mxCell>
                <mxCell id="237" value="&lt;font style=&quot;font-size: 48px;&quot;&gt;&lt;b&gt;Catering Service Details&amp;nbsp; &amp;nbsp;&lt;/b&gt;&lt;/font&gt;" style="edgeLabel;html=1;align=center;verticalAlign=middle;resizable=0;points=[];fontSize=24;" parent="123" vertex="1" connectable="0">
                    <mxGeometry x="0.6903" y="3" relative="1" as="geometry">
                        <mxPoint x="-19" y="-436" as="offset"/>
                    </mxGeometry>
                </mxCell>
                <mxCell id="130" style="edgeStyle=none;html=1;fontSize=36;exitX=0.25;exitY=1;exitDx=0;exitDy=0;entryX=0.701;entryY=-0.003;entryDx=0;entryDy=0;entryPerimeter=0;fontStyle=1" parent="1" target="127" edge="1">
                    <mxGeometry relative="1" as="geometry">
                        <Array as="points">
                            <mxPoint x="955" y="2870"/>
                            <mxPoint x="-530" y="2870"/>
                        </Array>
                        <mxPoint x="955.6199999999999" y="2649.68" as="sourcePoint"/>
                        <mxPoint x="-530" y="2940" as="targetPoint"/>
                    </mxGeometry>
                </mxCell>
                <mxCell id="247" value="&lt;b style=&quot;font-size: 36px;&quot;&gt;Total Cost&lt;/b&gt;" style="edgeLabel;html=1;align=center;verticalAlign=middle;resizable=0;points=[];fontSize=30;" parent="130" vertex="1" connectable="0">
                    <mxGeometry x="0.747" y="-2" relative="1" as="geometry">
                        <mxPoint x="59" y="5" as="offset"/>
                    </mxGeometry>
                </mxCell>
                <mxCell id="291" value="&lt;font style=&quot;font-size: 36px;&quot;&gt;&lt;b&gt;Total Cost&amp;nbsp;&lt;/b&gt;&lt;/font&gt;" style="edgeLabel;html=1;align=center;verticalAlign=middle;resizable=0;points=[];fontSize=24;" parent="130" vertex="1" connectable="0">
                    <mxGeometry x="-0.7772" y="-3" relative="1" as="geometry">
                        <mxPoint x="-92" y="-27" as="offset"/>
                    </mxGeometry>
                </mxCell>
                <mxCell id="117" value="" style="rounded=1;whiteSpace=wrap;html=1;fontSize=24;" parent="1" vertex="1">
                    <mxGeometry x="790" y="2540" width="463.12" height="250" as="geometry"/>
                </mxCell>
                <mxCell id="118" value="" style="endArrow=none;html=1;fontSize=24;exitX=0;exitY=0.327;exitDx=0;exitDy=0;fontStyle=1;exitPerimeter=0;entryX=1.002;entryY=0.314;entryDx=0;entryDy=0;entryPerimeter=0;" parent="1" source="117" target="117" edge="1">
                    <mxGeometry width="50" height="50" relative="1" as="geometry">
                        <mxPoint x="490" y="1800" as="sourcePoint"/>
                        <mxPoint x="1240" y="2560" as="targetPoint"/>
                    </mxGeometry>
                </mxCell>
                <mxCell id="484" value="&lt;font style=&quot;font-size: 36px;&quot;&gt;&lt;b&gt;9.1&lt;/b&gt;&lt;/font&gt;" style="edgeLabel;html=1;align=center;verticalAlign=middle;resizable=0;points=[];fontSize=24;" parent="118" vertex="1" connectable="0">
                    <mxGeometry x="-0.6591" y="-1" relative="1" as="geometry">
                        <mxPoint x="-29" y="-27" as="offset"/>
                    </mxGeometry>
                </mxCell>
                <mxCell id="650" value="&lt;b&gt;Service Invoce Fill-up&lt;/b&gt;" style="edgeLabel;html=1;align=center;verticalAlign=middle;resizable=0;points=[];fontSize=36;" parent="118" vertex="1" connectable="0">
                    <mxGeometry x="-0.1001" relative="1" as="geometry">
                        <mxPoint x="11" y="62" as="offset"/>
                    </mxGeometry>
                </mxCell>
                <mxCell id="148" style="edgeStyle=none;html=1;entryX=0;entryY=0.5;entryDx=0;entryDy=0;fontSize=36;exitX=0.078;exitY=0.001;exitDx=0;exitDy=0;exitPerimeter=0;fontStyle=1" parent="1" source="127" target="17" edge="1">
                    <mxGeometry relative="1" as="geometry">
                        <Array as="points">
                            <mxPoint x="-910" y="840"/>
                        </Array>
                    </mxGeometry>
                </mxCell>
                <mxCell id="267" value="&lt;b style=&quot;font-size: 48px;&quot;&gt;Transaction &lt;br&gt;Data&lt;/b&gt;" style="edgeLabel;html=1;align=center;verticalAlign=middle;resizable=0;points=[];fontSize=24;" parent="148" vertex="1" connectable="0">
                    <mxGeometry x="-0.8138" y="-2" relative="1" as="geometry">
                        <mxPoint x="-43" y="67" as="offset"/>
                    </mxGeometry>
                </mxCell>
                <mxCell id="295" value="&lt;font style=&quot;font-size: 48px;&quot;&gt;&lt;b&gt;Transaction &lt;br&gt;Data&lt;/b&gt;&lt;/font&gt;" style="edgeLabel;html=1;align=center;verticalAlign=middle;resizable=0;points=[];fontSize=24;" parent="148" vertex="1" connectable="0">
                    <mxGeometry x="0.9342" y="-1" relative="1" as="geometry">
                        <mxPoint x="-564" y="92" as="offset"/>
                    </mxGeometry>
                </mxCell>
                <mxCell id="253" style="edgeStyle=none;html=1;entryX=0.101;entryY=-0.005;entryDx=0;entryDy=0;fontSize=30;exitX=0.602;exitY=1.017;exitDx=0;exitDy=0;fontStyle=1;entryPerimeter=0;exitPerimeter=0;" parent="1" source="127" target="251" edge="1">
                    <mxGeometry relative="1" as="geometry">
                        <Array as="points">
                            <mxPoint x="-580" y="3610"/>
                            <mxPoint x="199" y="3840"/>
                        </Array>
                    </mxGeometry>
                </mxCell>
                <mxCell id="254" value="&lt;span style=&quot;font-size: 36px;&quot;&gt;&lt;b&gt;All Transaction &lt;br&gt;Total Costs&amp;nbsp;&lt;br&gt;&lt;/b&gt;&lt;/span&gt;" style="edgeLabel;html=1;align=center;verticalAlign=middle;resizable=0;points=[];fontSize=30;" parent="253" vertex="1" connectable="0">
                    <mxGeometry x="-0.335" y="6" relative="1" as="geometry">
                        <mxPoint x="422" y="167" as="offset"/>
                    </mxGeometry>
                </mxCell>
                <mxCell id="419" style="edgeStyle=none;html=1;fontSize=24;exitX=0.75;exitY=1;exitDx=0;exitDy=0;fontStyle=1;entryX=0.348;entryY=0;entryDx=0;entryDy=0;entryPerimeter=0;" parent="1" source="127" target="251" edge="1">
                    <mxGeometry relative="1" as="geometry">
                        <mxPoint x="720" y="3970" as="targetPoint"/>
                        <Array as="points">
                            <mxPoint x="-500" y="3420"/>
                            <mxPoint x="370" y="3820"/>
                        </Array>
                    </mxGeometry>
                </mxCell>
                <mxCell id="436" value="&lt;font style=&quot;font-size: 48px;&quot;&gt;&lt;b&gt;Reservation&lt;br&gt;downpayment&lt;br&gt;&lt;/b&gt;&lt;/font&gt;" style="edgeLabel;html=1;align=center;verticalAlign=middle;resizable=0;points=[];fontSize=24;" parent="419" vertex="1" connectable="0">
                    <mxGeometry x="-0.1385" y="-2" relative="1" as="geometry">
                        <mxPoint x="-26" y="11" as="offset"/>
                    </mxGeometry>
                </mxCell>
                <mxCell id="496" style="edgeStyle=none;html=1;entryX=0.5;entryY=0;entryDx=0;entryDy=0;fontSize=24;exitX=0.986;exitY=0.951;exitDx=0;exitDy=0;fontStyle=1;exitPerimeter=0;" parent="1" source="127" target="251" edge="1">
                    <mxGeometry relative="1" as="geometry">
                        <mxPoint x="-350" y="3110" as="sourcePoint"/>
                        <Array as="points">
                            <mxPoint x="-280" y="3400"/>
                            <mxPoint x="280" y="3650"/>
                            <mxPoint x="470" y="3690"/>
                        </Array>
                    </mxGeometry>
                </mxCell>
                <mxCell id="497" value="&lt;font style=&quot;font-size: 48px;&quot;&gt;&lt;b&gt;Direct&amp;nbsp;&lt;br&gt;Room lodging&amp;nbsp;&lt;/b&gt;&lt;/font&gt;" style="edgeLabel;html=1;align=center;verticalAlign=middle;resizable=0;points=[];fontSize=24;" parent="496" vertex="1" connectable="0">
                    <mxGeometry x="-0.8571" y="-2" relative="1" as="geometry">
                        <mxPoint x="743" y="362" as="offset"/>
                    </mxGeometry>
                </mxCell>
                <mxCell id="127" value="&lt;font style=&quot;font-size: 36px;&quot;&gt;&lt;b&gt;Transaction End and calculate the total cost of transactions&lt;br&gt;or start a new Transactions&lt;/b&gt;&lt;/font&gt;" style="rounded=1;whiteSpace=wrap;html=1;fontSize=24;" parent="1" vertex="1">
                    <mxGeometry x="-990" y="3015" width="600.31" height="300" as="geometry"/>
                </mxCell>
                <mxCell id="128" value="" style="endArrow=none;html=1;fontSize=24;exitX=0;exitY=0.25;exitDx=0;exitDy=0;entryX=1;entryY=0.25;entryDx=0;entryDy=0;fontStyle=1" parent="1" source="127" target="127" edge="1">
                    <mxGeometry width="50" height="50" relative="1" as="geometry">
                        <mxPoint x="-500.64" y="2715" as="sourcePoint"/>
                        <mxPoint x="-450.64" y="2665" as="targetPoint"/>
                    </mxGeometry>
                </mxCell>
                <mxCell id="451" value="&lt;font style=&quot;font-size: 36px;&quot;&gt;&lt;b&gt;10.0&lt;/b&gt;&lt;/font&gt;" style="edgeLabel;html=1;align=center;verticalAlign=middle;resizable=0;points=[];fontSize=24;" parent="128" vertex="1" connectable="0">
                    <mxGeometry x="-0.6555" y="3" relative="1" as="geometry">
                        <mxPoint x="-11" y="-32" as="offset"/>
                    </mxGeometry>
                </mxCell>
                <mxCell id="137" style="edgeStyle=none;html=1;entryX=0.641;entryY=0.01;entryDx=0;entryDy=0;fontSize=36;fontStyle=1;entryPerimeter=0;exitX=0.68;exitY=1.013;exitDx=0;exitDy=0;exitPerimeter=0;" parent="1" source="134" target="117" edge="1">
                    <mxGeometry relative="1" as="geometry"/>
                </mxCell>
                <mxCell id="290" value="&lt;font style=&quot;font-size: 36px;&quot;&gt;Order Details&lt;/font&gt;" style="edgeLabel;html=1;align=center;verticalAlign=middle;resizable=0;points=[];fontSize=24;" parent="137" vertex="1" connectable="0">
                    <mxGeometry x="-0.2176" y="-2" relative="1" as="geometry">
                        <mxPoint x="126" y="8" as="offset"/>
                    </mxGeometry>
                </mxCell>
                <mxCell id="150" style="edgeStyle=none;html=1;fontSize=36;exitX=1;exitY=0.25;exitDx=0;exitDy=0;entryX=1.003;entryY=0.186;entryDx=0;entryDy=0;entryPerimeter=0;fontStyle=1" parent="1" source="134" target="5" edge="1">
                    <mxGeometry relative="1" as="geometry">
                        <mxPoint x="300" y="-110" as="targetPoint"/>
                        <Array as="points">
                            <mxPoint x="1430" y="2160"/>
                            <mxPoint x="1440" y="-444"/>
                        </Array>
                    </mxGeometry>
                </mxCell>
                <mxCell id="274" value="&lt;span style=&quot;font-size: 48px;&quot;&gt;final details&lt;/span&gt;" style="edgeLabel;html=1;align=center;verticalAlign=middle;resizable=0;points=[];fontSize=30;" parent="150" vertex="1" connectable="0">
                    <mxGeometry x="0.6985" relative="1" as="geometry">
                        <mxPoint x="-40" y="-5" as="offset"/>
                    </mxGeometry>
                </mxCell>
                <mxCell id="275" value="&lt;span style=&quot;font-size: 36px;&quot;&gt;Final Details&lt;/span&gt;" style="edgeLabel;html=1;align=center;verticalAlign=middle;resizable=0;points=[];fontSize=30;" parent="150" vertex="1" connectable="0">
                    <mxGeometry x="-0.928" y="-1" relative="1" as="geometry">
                        <mxPoint x="-34" y="-198" as="offset"/>
                    </mxGeometry>
                </mxCell>
                <mxCell id="134" value="" style="rounded=1;whiteSpace=wrap;html=1;fontSize=24;" parent="1" vertex="1">
                    <mxGeometry x="756.56" y="2140" width="470" height="260" as="geometry"/>
                </mxCell>
                <mxCell id="135" value="" style="endArrow=none;html=1;fontSize=24;exitX=0.002;exitY=0.314;exitDx=0;exitDy=0;entryX=1;entryY=0.297;entryDx=0;entryDy=0;fontStyle=1;exitPerimeter=0;entryPerimeter=0;" parent="1" source="134" target="134" edge="1">
                    <mxGeometry width="50" height="50" relative="1" as="geometry">
                        <mxPoint x="1020" y="1810" as="sourcePoint"/>
                        <mxPoint x="1070" y="1760" as="targetPoint"/>
                    </mxGeometry>
                </mxCell>
                <mxCell id="483" value="&lt;font style=&quot;font-size: 36px;&quot;&gt;&lt;b&gt;8.1&lt;/b&gt;&lt;/font&gt;" style="edgeLabel;html=1;align=center;verticalAlign=middle;resizable=0;points=[];fontSize=24;" parent="135" vertex="1" connectable="0">
                    <mxGeometry x="-0.7012" y="-1" relative="1" as="geometry">
                        <mxPoint y="-33" as="offset"/>
                    </mxGeometry>
                </mxCell>
                <mxCell id="649" value="&lt;b style=&quot;&quot;&gt;&lt;font style=&quot;font-size: 48px;&quot;&gt;Details finalization&lt;/font&gt;&lt;/b&gt;" style="edgeLabel;html=1;align=center;verticalAlign=middle;resizable=0;points=[];fontSize=36;" parent="135" vertex="1" connectable="0">
                    <mxGeometry x="-0.119" y="-3" relative="1" as="geometry">
                        <mxPoint x="26" y="60" as="offset"/>
                    </mxGeometry>
                </mxCell>
                <mxCell id="310" style="edgeStyle=none;html=1;entryX=0.813;entryY=1.002;entryDx=0;entryDy=0;entryPerimeter=0;fontSize=24;exitX=0.907;exitY=-0.004;exitDx=0;exitDy=0;fontStyle=1;exitPerimeter=0;" parent="1" source="162" target="172" edge="1">
                    <mxGeometry relative="1" as="geometry">
                        <mxPoint x="3100.62" y="1780" as="sourcePoint"/>
                        <Array as="points"/>
                    </mxGeometry>
                </mxCell>
                <mxCell id="311" value="&lt;font style=&quot;font-size: 48px;&quot;&gt;&lt;b style=&quot;&quot;&gt;Schedule &lt;br&gt;information&lt;/b&gt;&lt;/font&gt;" style="edgeLabel;html=1;align=center;verticalAlign=middle;resizable=0;points=[];fontSize=24;" parent="310" vertex="1" connectable="0">
                    <mxGeometry x="-0.0465" y="-1" relative="1" as="geometry">
                        <mxPoint x="14" y="15" as="offset"/>
                    </mxGeometry>
                </mxCell>
                <mxCell id="167" style="edgeStyle=none;html=1;entryX=0.194;entryY=0.011;entryDx=0;entryDy=0;entryPerimeter=0;exitX=0.689;exitY=1;exitDx=0;exitDy=0;exitPerimeter=0;fontStyle=1" parent="1" source="160" target="164" edge="1">
                    <mxGeometry relative="1" as="geometry">
                        <mxPoint x="2270" y="2280" as="targetPoint"/>
                    </mxGeometry>
                </mxCell>
                <mxCell id="486" value="&lt;span style=&quot;font-size: 36px;&quot;&gt;Room lodging updates&lt;/span&gt;" style="edgeLabel;html=1;align=center;verticalAlign=middle;resizable=0;points=[];fontSize=24;" parent="167" vertex="1" connectable="0">
                    <mxGeometry x="-0.4207" y="-7" relative="1" as="geometry">
                        <mxPoint x="-86" y="146" as="offset"/>
                    </mxGeometry>
                </mxCell>
                <mxCell id="160" value="&lt;span style=&quot;font-size: 48px;&quot;&gt;&lt;b&gt;room lodging management&lt;/b&gt;&lt;/span&gt;" style="rounded=1;whiteSpace=wrap;html=1;fontSize=24;" parent="1" vertex="1">
                    <mxGeometry x="2110" y="1970" width="470" height="310" as="geometry"/>
                </mxCell>
                <mxCell id="161" value="" style="endArrow=none;html=1;fontSize=24;exitX=0;exitY=0.25;exitDx=0;exitDy=0;entryX=1;entryY=0.25;entryDx=0;entryDy=0;fontStyle=1" parent="1" source="160" target="160" edge="1">
                    <mxGeometry width="50" height="50" relative="1" as="geometry">
                        <mxPoint x="1919.3600000000001" y="2360" as="sourcePoint"/>
                        <mxPoint x="1969.3600000000001" y="2310" as="targetPoint"/>
                    </mxGeometry>
                </mxCell>
                <mxCell id="549" value="&lt;font style=&quot;font-size: 36px;&quot;&gt;&lt;b&gt;17.0&lt;/b&gt;&lt;/font&gt;" style="edgeLabel;html=1;align=center;verticalAlign=middle;resizable=0;points=[];fontSize=36;" parent="161" vertex="1" connectable="0">
                    <mxGeometry x="-0.7141" y="4" relative="1" as="geometry">
                        <mxPoint x="-9" y="-21" as="offset"/>
                    </mxGeometry>
                </mxCell>
                <mxCell id="169" style="edgeStyle=none;html=1;entryX=0.837;entryY=0.007;entryDx=0;entryDy=0;entryPerimeter=0;fontStyle=1" parent="1" source="162" target="164" edge="1">
                    <mxGeometry relative="1" as="geometry">
                        <mxPoint x="2880.3100000000004" y="2250" as="targetPoint"/>
                    </mxGeometry>
                </mxCell>
                <mxCell id="265" value="&lt;font style=&quot;font-size: 36px;&quot;&gt;Catering Updates&amp;nbsp;&lt;/font&gt;" style="edgeLabel;html=1;align=center;verticalAlign=middle;resizable=0;points=[];fontSize=24;" parent="169" vertex="1" connectable="0">
                    <mxGeometry x="-0.3461" y="1" relative="1" as="geometry">
                        <mxPoint x="2" y="24" as="offset"/>
                    </mxGeometry>
                </mxCell>
                <mxCell id="162" value="" style="rounded=1;whiteSpace=wrap;html=1;fontSize=24;" parent="1" vertex="1">
                    <mxGeometry x="2650" y="1890" width="610" height="250" as="geometry"/>
                </mxCell>
                <mxCell id="163" value="" style="endArrow=none;html=1;fontSize=24;exitX=-0.003;exitY=0.323;exitDx=0;exitDy=0;exitPerimeter=0;entryX=0.999;entryY=0.314;entryDx=0;entryDy=0;entryPerimeter=0;fontStyle=1" parent="1" source="162" target="162" edge="1">
                    <mxGeometry width="50" height="50" relative="1" as="geometry">
                        <mxPoint x="2650" y="1950" as="sourcePoint"/>
                        <mxPoint x="3110" y="1940" as="targetPoint"/>
                    </mxGeometry>
                </mxCell>
                <mxCell id="551" value="19.0" style="edgeLabel;html=1;align=center;verticalAlign=middle;resizable=0;points=[];fontSize=36;" parent="163" vertex="1" connectable="0">
                    <mxGeometry x="-0.69" y="-1" relative="1" as="geometry">
                        <mxPoint x="-21" y="-29" as="offset"/>
                    </mxGeometry>
                </mxCell>
                <mxCell id="711" value="&lt;b style=&quot;background-color: rgb(42, 37, 47);&quot;&gt;catering&amp;nbsp;schedule&lt;br&gt;&amp;nbsp;management&lt;/b&gt;" style="edgeLabel;html=1;align=center;verticalAlign=middle;resizable=0;points=[];fontSize=48;" vertex="1" connectable="0" parent="163">
                    <mxGeometry x="-0.2434" y="2" relative="1" as="geometry">
                        <mxPoint x="60" y="82" as="offset"/>
                    </mxGeometry>
                </mxCell>
                <mxCell id="536" style="edgeStyle=none;html=1;fontSize=24;fillColor=#FFFFFF;entryX=0.163;entryY=-0.005;entryDx=0;entryDy=0;entryPerimeter=0;exitX=0.153;exitY=1.01;exitDx=0;exitDy=0;exitPerimeter=0;fontStyle=1" parent="1" source="164" target="537" edge="1">
                    <mxGeometry relative="1" as="geometry">
                        <mxPoint x="2130" y="2724.6297200520835" as="targetPoint"/>
                    </mxGeometry>
                </mxCell>
                <mxCell id="544" value="Notification &amp;amp; Inquiry" style="edgeLabel;html=1;align=center;verticalAlign=middle;resizable=0;points=[];fontSize=36;" parent="536" vertex="1" connectable="0">
                    <mxGeometry x="-0.3114" y="2" relative="1" as="geometry">
                        <mxPoint x="-135" y="24" as="offset"/>
                    </mxGeometry>
                </mxCell>
                <mxCell id="164" value="&lt;font style=&quot;font-size: 36px;&quot;&gt;Contact customers &lt;br&gt;for their Cooperation&amp;nbsp;&lt;/font&gt;" style="rounded=1;whiteSpace=wrap;html=1;fontSize=24;" parent="1" vertex="1">
                    <mxGeometry x="2340" y="2540" width="480" height="230" as="geometry"/>
                </mxCell>
                <mxCell id="165" value="" style="endArrow=none;html=1;fontSize=24;entryX=0.999;entryY=0.294;entryDx=0;entryDy=0;entryPerimeter=0;fontStyle=1" parent="1" target="164" edge="1">
                    <mxGeometry width="50" height="50" relative="1" as="geometry">
                        <mxPoint x="2340" y="2610" as="sourcePoint"/>
                        <mxPoint x="2820" y="2600" as="targetPoint"/>
                    </mxGeometry>
                </mxCell>
                <mxCell id="550" value="18.0" style="edgeLabel;html=1;align=center;verticalAlign=middle;resizable=0;points=[];fontSize=36;" parent="165" vertex="1" connectable="0">
                    <mxGeometry x="-0.7224" relative="1" as="geometry">
                        <mxPoint x="-4" y="-31" as="offset"/>
                    </mxGeometry>
                </mxCell>
                <mxCell id="179" style="edgeStyle=none;html=1;fontStyle=1" parent="1" source="172" target="177" edge="1">
                    <mxGeometry relative="1" as="geometry"/>
                </mxCell>
                <mxCell id="519" style="edgeStyle=none;html=1;fontSize=24;fillColor=#FFFFFF;entryX=0.999;entryY=0.283;entryDx=0;entryDy=0;entryPerimeter=0;exitX=0.44;exitY=-0.026;exitDx=0;exitDy=0;exitPerimeter=0;fontStyle=1" parent="1" source="172" target="507" edge="1">
                    <mxGeometry relative="1" as="geometry">
                        <mxPoint x="3010" y="1460" as="sourcePoint"/>
                        <Array as="points">
                            <mxPoint x="3070" y="720"/>
                        </Array>
                        <mxPoint x="2840" y="720" as="targetPoint"/>
                    </mxGeometry>
                </mxCell>
                <mxCell id="520" value="&lt;font style=&quot;font-size: 48px;&quot;&gt;&lt;b&gt;prepartion&lt;br&gt;updates&lt;/b&gt;&lt;/font&gt;" style="edgeLabel;html=1;align=center;verticalAlign=middle;resizable=0;points=[];fontSize=24;" parent="519" vertex="1" connectable="0">
                    <mxGeometry x="0.1923" y="-1" relative="1" as="geometry">
                        <mxPoint x="-57" y="-79" as="offset"/>
                    </mxGeometry>
                </mxCell>
                <mxCell id="562" style="edgeStyle=none;html=1;entryX=1;entryY=0.75;entryDx=0;entryDy=0;fontSize=36;fontStyle=1;exitX=0.768;exitY=-0.004;exitDx=0;exitDy=0;exitPerimeter=0;" parent="1" source="172" target="559" edge="1">
                    <mxGeometry relative="1" as="geometry">
                        <Array as="points">
                            <mxPoint x="3220" y="190"/>
                        </Array>
                        <mxPoint x="3220" y="1450" as="sourcePoint"/>
                    </mxGeometry>
                </mxCell>
                <mxCell id="580" value="&lt;b&gt;&lt;font style=&quot;font-size: 48px;&quot;&gt;Task Status&lt;/font&gt;&lt;/b&gt;" style="edgeLabel;html=1;align=center;verticalAlign=middle;resizable=0;points=[];fontSize=24;" parent="562" vertex="1" connectable="0">
                    <mxGeometry x="0.8833" y="2" relative="1" as="geometry">
                        <mxPoint x="71" y="-95" as="offset"/>
                    </mxGeometry>
                </mxCell>
                <mxCell id="595" value="&lt;b style=&quot;&quot;&gt;&lt;font style=&quot;font-size: 48px;&quot;&gt;Task Status&lt;/font&gt;&lt;/b&gt;" style="edgeLabel;html=1;align=center;verticalAlign=middle;resizable=0;points=[];fontSize=24;" parent="562" vertex="1" connectable="0">
                    <mxGeometry x="-0.822" y="3" relative="1" as="geometry">
                        <mxPoint x="94" as="offset"/>
                    </mxGeometry>
                </mxCell>
                <mxCell id="577" value="" style="edgeStyle=none;html=1;fontSize=24;fontStyle=1" parent="1" source="172" target="177" edge="1">
                    <mxGeometry relative="1" as="geometry"/>
                </mxCell>
                <mxCell id="630" value="Tasks&amp;nbsp;&lt;br&gt;Status" style="edgeLabel;html=1;align=center;verticalAlign=middle;resizable=0;points=[];fontSize=48;" parent="577" vertex="1" connectable="0">
                    <mxGeometry x="0.1742" y="-6" relative="1" as="geometry">
                        <mxPoint x="16" y="79" as="offset"/>
                    </mxGeometry>
                </mxCell>
                <mxCell id="172" value="&lt;font style=&quot;font-size: 48px;&quot;&gt;Staff member&lt;/font&gt;" style="shape=cube;whiteSpace=wrap;html=1;boundedLbl=1;backgroundOutline=1;darkOpacity=0.05;darkOpacity2=0.1;" parent="1" vertex="1">
                    <mxGeometry x="2920" y="1290" width="430" height="359.82" as="geometry"/>
                </mxCell>
                <mxCell id="180" style="edgeStyle=none;html=1;exitX=0;exitY=0.25;exitDx=0;exitDy=0;entryX=0.998;entryY=0.249;entryDx=0;entryDy=0;entryPerimeter=0;fontStyle=1" parent="1" source="177" target="31" edge="1">
                    <mxGeometry relative="1" as="geometry">
                        <mxPoint x="2060" y="1360" as="targetPoint"/>
                    </mxGeometry>
                </mxCell>
                <mxCell id="281" value="&lt;font style=&quot;font-size: 36px;&quot;&gt;Tasks Report&amp;nbsp;&lt;br&gt;&lt;/font&gt;" style="edgeLabel;html=1;align=center;verticalAlign=middle;resizable=0;points=[];fontSize=18;" parent="180" vertex="1" connectable="0">
                    <mxGeometry x="0.3996" y="3" relative="1" as="geometry">
                        <mxPoint x="42" y="-68" as="offset"/>
                    </mxGeometry>
                </mxCell>
                <mxCell id="182" style="edgeStyle=none;html=1;entryX=0;entryY=0;entryDx=320;entryDy=115;entryPerimeter=0;fontStyle=1;exitX=0.301;exitY=0.006;exitDx=0;exitDy=0;exitPerimeter=0;" parent="1" target="29" edge="1" source="177">
                    <mxGeometry relative="1" as="geometry">
                        <Array as="points">
                            <mxPoint x="2500" y="990"/>
                        </Array>
                        <mxPoint x="2500" y="1290" as="sourcePoint"/>
                    </mxGeometry>
                </mxCell>
                <mxCell id="279" value="&lt;font style=&quot;font-size: 36px;&quot;&gt;&lt;b&gt;Status Report&lt;/b&gt;&lt;br&gt;&lt;/font&gt;" style="edgeLabel;html=1;align=center;verticalAlign=middle;resizable=0;points=[];fontSize=24;" parent="182" vertex="1" connectable="0">
                    <mxGeometry x="0.3741" y="4" relative="1" as="geometry">
                        <mxPoint x="-51" y="-2" as="offset"/>
                    </mxGeometry>
                </mxCell>
                <mxCell id="177" value="&lt;font style=&quot;font-size: 48px;&quot;&gt;&lt;b style=&quot;&quot;&gt;reports to management&lt;/b&gt;&lt;/font&gt;" style="rounded=1;whiteSpace=wrap;html=1;fontSize=24;" parent="1" vertex="1">
                    <mxGeometry x="2400" y="1340" width="330" height="350" as="geometry"/>
                </mxCell>
                <mxCell id="178" value="" style="endArrow=none;html=1;fontSize=24;exitX=-0.001;exitY=0.299;exitDx=0;exitDy=0;entryX=0.998;entryY=0.288;entryDx=0;entryDy=0;exitPerimeter=0;entryPerimeter=0;fontStyle=1" parent="1" source="177" target="177" edge="1">
                    <mxGeometry width="50" height="50" relative="1" as="geometry">
                        <mxPoint x="1909.3600000000001" y="1409.82" as="sourcePoint"/>
                        <mxPoint x="1959.3600000000001" y="1359.82" as="targetPoint"/>
                    </mxGeometry>
                </mxCell>
                <mxCell id="548" value="&lt;b&gt;16.0&lt;/b&gt;" style="edgeLabel;html=1;align=center;verticalAlign=middle;resizable=0;points=[];fontSize=36;" parent="178" vertex="1" connectable="0">
                    <mxGeometry x="-0.7161" y="3" relative="1" as="geometry">
                        <mxPoint x="8" y="-41" as="offset"/>
                    </mxGeometry>
                </mxCell>
                <mxCell id="186" style="edgeStyle=none;html=1;exitX=0.5;exitY=0;exitDx=0;exitDy=0;entryX=0.003;entryY=0.89;entryDx=0;entryDy=0;entryPerimeter=0;fontStyle=1" parent="1" source="13" target="160" edge="1">
                    <mxGeometry relative="1" as="geometry">
                        <mxPoint x="40" y="3200" as="sourcePoint"/>
                        <mxPoint x="2070" y="2060" as="targetPoint"/>
                        <Array as="points">
                            <mxPoint x="170" y="2980"/>
                            <mxPoint x="2000" y="2810"/>
                            <mxPoint x="1990" y="2260"/>
                        </Array>
                    </mxGeometry>
                </mxCell>
                <mxCell id="246" value="&lt;b style=&quot;&quot;&gt;&lt;font style=&quot;font-size: 48px;&quot;&gt;Rooms &lt;br&gt;Schedule&lt;/font&gt;&lt;/b&gt;" style="edgeLabel;html=1;align=center;verticalAlign=middle;resizable=0;points=[];fontSize=24;" parent="186" vertex="1" connectable="0">
                    <mxGeometry x="-0.6785" y="-4" relative="1" as="geometry">
                        <mxPoint x="-126" y="32" as="offset"/>
                    </mxGeometry>
                </mxCell>
                <mxCell id="277" value="&lt;font style=&quot;font-size: 48px;&quot;&gt;&lt;b&gt;Rooms Schedule&lt;/b&gt;&lt;/font&gt;" style="edgeLabel;html=1;align=center;verticalAlign=middle;resizable=0;points=[];fontSize=24;" parent="186" vertex="1" connectable="0">
                    <mxGeometry x="0.7896" y="-3" relative="1" as="geometry">
                        <mxPoint x="104" y="-28" as="offset"/>
                    </mxGeometry>
                </mxCell>
                <mxCell id="675" style="edgeStyle=none;html=1;entryX=0.25;entryY=1;entryDx=0;entryDy=0;fontSize=48;exitX=0.75;exitY=0;exitDx=0;exitDy=0;" edge="1" parent="1" source="251" target="8">
                    <mxGeometry relative="1" as="geometry">
                        <Array as="points">
                            <mxPoint x="645" y="3690"/>
                            <mxPoint x="760" y="3500"/>
                        </Array>
                    </mxGeometry>
                </mxCell>
                <mxCell id="677" value="&lt;b&gt;Payment details&lt;br&gt;&lt;/b&gt;" style="edgeLabel;html=1;align=center;verticalAlign=middle;resizable=0;points=[];fontSize=48;" vertex="1" connectable="0" parent="675">
                    <mxGeometry x="-0.0641" y="-3" relative="1" as="geometry">
                        <mxPoint x="115" y="-113" as="offset"/>
                    </mxGeometry>
                </mxCell>
                <mxCell id="251" value="&lt;span style=&quot;font-size: 36px;&quot;&gt;&lt;b&gt;Transaction Payments&amp;nbsp;&lt;/b&gt;&lt;/span&gt;" style="rounded=1;whiteSpace=wrap;html=1;fontSize=24;" parent="1" vertex="1">
                    <mxGeometry x="150" y="3920" width="660" height="270" as="geometry"/>
                </mxCell>
                <mxCell id="252" value="" style="endArrow=none;html=1;fontSize=24;exitX=0;exitY=0.273;exitDx=0;exitDy=0;entryX=1;entryY=0.287;entryDx=0;entryDy=0;exitPerimeter=0;entryPerimeter=0;fontStyle=1" parent="1" source="251" target="251" edge="1">
                    <mxGeometry width="50" height="50" relative="1" as="geometry">
                        <mxPoint x="489.36" y="3735" as="sourcePoint"/>
                        <mxPoint x="539.36" y="3685" as="targetPoint"/>
                    </mxGeometry>
                </mxCell>
                <mxCell id="491" value="&lt;font style=&quot;font-size: 36px;&quot;&gt;&lt;b&gt;11.1&lt;/b&gt;&lt;/font&gt;" style="edgeLabel;html=1;align=center;verticalAlign=middle;resizable=0;points=[];fontSize=36;" parent="252" vertex="1" connectable="0">
                    <mxGeometry x="-0.7139" y="-1" relative="1" as="geometry">
                        <mxPoint x="-10" y="-30" as="offset"/>
                    </mxGeometry>
                </mxCell>
                <mxCell id="398" style="edgeStyle=none;html=1;fontSize=24;entryX=0;entryY=0.5;entryDx=0;entryDy=0;exitX=0;exitY=0;exitDx=510.31;exitDy=85;exitPerimeter=0;fontStyle=1" parent="1" source="348" target="251" edge="1">
                    <mxGeometry relative="1" as="geometry">
                        <mxPoint x="460" y="4430" as="targetPoint"/>
                        <Array as="points">
                            <mxPoint x="40" y="4055"/>
                        </Array>
                    </mxGeometry>
                </mxCell>
                <mxCell id="430" value="&lt;span style=&quot;font-size: 36px;&quot;&gt;&lt;b&gt;Payment Details&lt;/b&gt;&lt;/span&gt;" style="edgeLabel;html=1;align=center;verticalAlign=middle;resizable=0;points=[];fontSize=24;" parent="398" vertex="1" connectable="0">
                    <mxGeometry x="-0.2259" y="9" relative="1" as="geometry">
                        <mxPoint x="22" y="66" as="offset"/>
                    </mxGeometry>
                </mxCell>
                <mxCell id="348" value="&lt;font style=&quot;font-size: 72px;&quot;&gt;&lt;b&gt;CUSTOMER&lt;/b&gt;&lt;/font&gt;" style="shape=cube;whiteSpace=wrap;html=1;boundedLbl=1;backgroundOutline=1;darkOpacity=0.05;darkOpacity2=0.1;" parent="1" vertex="1">
                    <mxGeometry x="-760" y="3960" width="510.31" height="240" as="geometry"/>
                </mxCell>
                <mxCell id="374" style="edgeStyle=none;html=1;fontSize=24;exitX=0.75;exitY=1;exitDx=0;exitDy=0;fontStyle=1" parent="1" source="376" target="390" edge="1">
                    <mxGeometry relative="1" as="geometry">
                        <Array as="points">
                            <mxPoint x="-550" y="5310"/>
                            <mxPoint x="580" y="5300"/>
                            <mxPoint x="670" y="5280"/>
                        </Array>
                    </mxGeometry>
                </mxCell>
                <mxCell id="375" value="&lt;font style=&quot;font-size: 36px;&quot;&gt;Updates&lt;br&gt;&lt;/font&gt;" style="edgeLabel;html=1;align=center;verticalAlign=middle;resizable=0;points=[];fontSize=24;" parent="374" vertex="1" connectable="0">
                    <mxGeometry x="-0.5015" y="5" relative="1" as="geometry">
                        <mxPoint x="477" y="-3" as="offset"/>
                    </mxGeometry>
                </mxCell>
                <mxCell id="376" value="&lt;font style=&quot;font-size: 36px;&quot;&gt;&lt;b&gt;Check-in&lt;/b&gt;&lt;/font&gt;" style="rounded=1;whiteSpace=wrap;html=1;fontSize=24;" parent="1" vertex="1">
                    <mxGeometry x="-820" y="4990" width="330" height="240" as="geometry"/>
                </mxCell>
                <mxCell id="377" value="" style="endArrow=none;html=1;fontSize=24;exitX=0;exitY=0.25;exitDx=0;exitDy=0;entryX=1;entryY=0.25;entryDx=0;entryDy=0;fontStyle=1" parent="1" source="376" target="376" edge="1">
                    <mxGeometry width="50" height="50" relative="1" as="geometry">
                        <mxPoint x="1349.3600000000001" y="5049.82" as="sourcePoint"/>
                        <mxPoint x="1399.3600000000001" y="4999.82" as="targetPoint"/>
                    </mxGeometry>
                </mxCell>
                <mxCell id="524" value="&lt;b&gt;&lt;font style=&quot;font-size: 36px;&quot;&gt;13.1&lt;/font&gt;&lt;/b&gt;" style="edgeLabel;html=1;align=center;verticalAlign=middle;resizable=0;points=[];fontSize=24;" parent="377" vertex="1" connectable="0">
                    <mxGeometry x="-0.2456" y="2" relative="1" as="geometry">
                        <mxPoint x="-21" y="-28" as="offset"/>
                    </mxGeometry>
                </mxCell>
                <mxCell id="378" style="edgeStyle=none;html=1;entryX=0;entryY=0.5;entryDx=0;entryDy=0;fontSize=24;startArrow=none;exitX=0.75;exitY=1;exitDx=0;exitDy=0;fontStyle=1;" parent="1" source="380" target="390" edge="1">
                    <mxGeometry relative="1" as="geometry">
                        <mxPoint x="-210" y="4710" as="sourcePoint"/>
                        <Array as="points">
                            <mxPoint x="-190" y="5165"/>
                        </Array>
                    </mxGeometry>
                </mxCell>
                <mxCell id="616" value="&lt;b&gt;Updates&lt;/b&gt;" style="edgeLabel;html=1;align=center;verticalAlign=middle;resizable=0;points=[];fontSize=36;" parent="378" vertex="1" connectable="0">
                    <mxGeometry x="-0.4544" y="1" relative="1" as="geometry">
                        <mxPoint x="290" y="-4" as="offset"/>
                    </mxGeometry>
                </mxCell>
                <mxCell id="381" value="" style="endArrow=none;html=1;fontSize=24;exitX=0;exitY=0.25;exitDx=0;exitDy=0;entryX=1;entryY=0.25;entryDx=0;entryDy=0;fontStyle=1" parent="1" source="380" target="380" edge="1">
                    <mxGeometry width="50" height="50" relative="1" as="geometry">
                        <mxPoint x="1349.3600000000001" y="5249.82" as="sourcePoint"/>
                        <mxPoint x="1399.3600000000001" y="5199.82" as="targetPoint"/>
                    </mxGeometry>
                </mxCell>
                <mxCell id="382" style="edgeStyle=none;html=1;entryX=0.067;entryY=0.003;entryDx=0;entryDy=0;fontSize=24;exitX=0.75;exitY=1;exitDx=0;exitDy=0;fontStyle=1;entryPerimeter=0;" parent="1" source="384" target="390" edge="1">
                    <mxGeometry relative="1" as="geometry">
                        <Array as="points">
                            <mxPoint x="800" y="4910"/>
                        </Array>
                    </mxGeometry>
                </mxCell>
                <mxCell id="383" value="&lt;b style=&quot;font-size: 36px;&quot;&gt;Details &amp;amp; Room Id&lt;/b&gt;" style="edgeLabel;html=1;align=center;verticalAlign=middle;resizable=0;points=[];fontSize=24;" parent="382" vertex="1" connectable="0">
                    <mxGeometry x="-0.4936" relative="1" as="geometry">
                        <mxPoint x="46" y="54" as="offset"/>
                    </mxGeometry>
                </mxCell>
                <mxCell id="384" value="&lt;font style=&quot;font-size: 36px;&quot;&gt;&lt;b&gt;Customer&lt;br&gt;Reservation&lt;br&gt;Cancellation&lt;/b&gt;&lt;/font&gt;" style="rounded=1;whiteSpace=wrap;html=1;fontSize=24;" parent="1" vertex="1">
                    <mxGeometry x="275.31" y="4380" width="270" height="300" as="geometry"/>
                </mxCell>
                <mxCell id="385" value="" style="endArrow=none;html=1;fontSize=24;exitX=0;exitY=0.25;exitDx=0;exitDy=0;entryX=1;entryY=0.25;entryDx=0;entryDy=0;fontStyle=1" parent="1" source="384" target="384" edge="1">
                    <mxGeometry width="50" height="50" relative="1" as="geometry">
                        <mxPoint x="1349.3600000000001" y="5439.82" as="sourcePoint"/>
                        <mxPoint x="1399.3600000000001" y="5389.82" as="targetPoint"/>
                    </mxGeometry>
                </mxCell>
                <mxCell id="528" value="&lt;font style=&quot;font-size: 36px;&quot;&gt;&lt;b&gt;13.4&lt;/b&gt;&lt;/font&gt;" style="edgeLabel;html=1;align=center;verticalAlign=middle;resizable=0;points=[];fontSize=24;" parent="385" vertex="1" connectable="0">
                    <mxGeometry x="-0.6994" y="-2" relative="1" as="geometry">
                        <mxPoint x="15" y="-37" as="offset"/>
                    </mxGeometry>
                </mxCell>
                <mxCell id="386" style="edgeStyle=none;html=1;entryX=0;entryY=0.25;entryDx=0;entryDy=0;fontSize=24;exitX=0.25;exitY=1;exitDx=0;exitDy=0;fontStyle=1" parent="1" source="388" target="390" edge="1">
                    <mxGeometry relative="1" as="geometry">
                        <Array as="points">
                            <mxPoint x="-6" y="5050"/>
                            <mxPoint x="520" y="5060"/>
                        </Array>
                    </mxGeometry>
                </mxCell>
                <mxCell id="387" value="&lt;span style=&quot;font-size: 36px;&quot;&gt;&lt;b&gt;Duration&lt;br&gt;&lt;/b&gt;&lt;/span&gt;" style="edgeLabel;html=1;align=center;verticalAlign=middle;resizable=0;points=[];fontSize=24;" parent="386" vertex="1" connectable="0">
                    <mxGeometry x="0.4549" y="4" relative="1" as="geometry">
                        <mxPoint x="-270" y="-8" as="offset"/>
                    </mxGeometry>
                </mxCell>
                <mxCell id="388" value="&lt;font style=&quot;font-size: 36px;&quot;&gt;Room Lodging&amp;nbsp;Extention&lt;/font&gt;" style="rounded=1;whiteSpace=wrap;html=1;fontSize=24;" parent="1" vertex="1">
                    <mxGeometry x="-101.48" y="4730" width="380" height="210" as="geometry"/>
                </mxCell>
                <mxCell id="389" value="" style="endArrow=none;html=1;fontSize=24;exitX=0;exitY=0.25;exitDx=0;exitDy=0;entryX=1;entryY=0.25;entryDx=0;entryDy=0;fontStyle=1" parent="1" source="388" target="388" edge="1">
                    <mxGeometry width="50" height="50" relative="1" as="geometry">
                        <mxPoint x="1349.3600000000001" y="5609.82" as="sourcePoint"/>
                        <mxPoint x="1399.3600000000001" y="5559.82" as="targetPoint"/>
                    </mxGeometry>
                </mxCell>
                <mxCell id="526" value="&lt;font style=&quot;font-size: 36px;&quot;&gt;&lt;b&gt;13.3&lt;/b&gt;&lt;/font&gt;" style="edgeLabel;html=1;align=center;verticalAlign=middle;resizable=0;points=[];fontSize=24;" parent="389" vertex="1" connectable="0">
                    <mxGeometry x="-0.6258" relative="1" as="geometry">
                        <mxPoint x="-9" y="-25" as="offset"/>
                    </mxGeometry>
                </mxCell>
                <mxCell id="406" style="edgeStyle=none;html=1;fontSize=24;entryX=0.25;entryY=1;entryDx=0;entryDy=0;fontStyle=1;exitX=0.816;exitY=-0.002;exitDx=0;exitDy=0;exitPerimeter=0;" parent="1" source="390" target="13" edge="1">
                    <mxGeometry relative="1" as="geometry">
                        <mxPoint x="150" y="3420" as="targetPoint"/>
                        <Array as="points">
                            <mxPoint x="1170" y="3840"/>
                            <mxPoint x="5" y="3420"/>
                        </Array>
                        <mxPoint x="-220" y="4610" as="sourcePoint"/>
                    </mxGeometry>
                </mxCell>
                <mxCell id="505" value="&lt;font style=&quot;&quot;&gt;&lt;span style=&quot;font-size: 48px;&quot;&gt;&lt;b&gt;Registration &lt;br&gt;Cards &lt;br&gt;Updates&lt;/b&gt;&lt;/span&gt;&lt;br&gt;&lt;/font&gt;" style="edgeLabel;html=1;align=center;verticalAlign=middle;resizable=0;points=[];fontSize=24;" parent="406" vertex="1" connectable="0">
                    <mxGeometry x="0.9563" relative="1" as="geometry">
                        <mxPoint x="335" y="106" as="offset"/>
                    </mxGeometry>
                </mxCell>
                <mxCell id="438" style="edgeStyle=none;html=1;entryX=1;entryY=0.75;entryDx=0;entryDy=0;fontSize=24;exitX=0.914;exitY=-0.001;exitDx=0;exitDy=0;fontStyle=1;exitPerimeter=0;" parent="1" source="390" target="8" edge="1">
                    <mxGeometry relative="1" as="geometry">
                        <Array as="points">
                            <mxPoint x="1254" y="3410"/>
                        </Array>
                    </mxGeometry>
                </mxCell>
                <mxCell id="440" value="&lt;span style=&quot;font-size: 48px;&quot;&gt;Room Lodging Updates&lt;/span&gt;" style="edgeLabel;html=1;align=center;verticalAlign=middle;resizable=0;points=[];fontSize=24;" parent="438" vertex="1" connectable="0">
                    <mxGeometry x="0.9413" y="-5" relative="1" as="geometry">
                        <mxPoint x="257" y="288" as="offset"/>
                    </mxGeometry>
                </mxCell>
                <mxCell id="692" style="edgeStyle=none;html=1;entryX=0.5;entryY=1;entryDx=0;entryDy=0;fontSize=72;exitX=-0.002;exitY=0.66;exitDx=0;exitDy=0;exitPerimeter=0;" edge="1" parent="1" source="390" target="380">
                    <mxGeometry relative="1" as="geometry">
                        <Array as="points">
                            <mxPoint x="-250" y="5200"/>
                        </Array>
                    </mxGeometry>
                </mxCell>
                <mxCell id="693" value="&lt;font style=&quot;font-size: 48px;&quot;&gt;Verification&lt;br&gt;&lt;/font&gt;" style="edgeLabel;html=1;align=center;verticalAlign=middle;resizable=0;points=[];fontSize=72;" vertex="1" connectable="0" parent="692">
                    <mxGeometry x="0.5073" y="9" relative="1" as="geometry">
                        <mxPoint x="2" y="20" as="offset"/>
                    </mxGeometry>
                </mxCell>
                <mxCell id="390" value="&lt;font style=&quot;font-size: 36px;&quot;&gt;&lt;b&gt;Management Verification &lt;br&gt;&lt;br&gt;&lt;/b&gt;&lt;/font&gt;" style="rounded=1;whiteSpace=wrap;html=1;fontSize=24;" parent="1" vertex="1">
                    <mxGeometry x="770" y="5030" width="530" height="270" as="geometry"/>
                </mxCell>
                <mxCell id="391" value="" style="endArrow=none;html=1;fontSize=24;exitX=0;exitY=0.25;exitDx=0;exitDy=0;entryX=1;entryY=0.25;entryDx=0;entryDy=0;fontStyle=1" parent="1" source="390" target="390" edge="1">
                    <mxGeometry width="50" height="50" relative="1" as="geometry">
                        <mxPoint x="1514.3600000000001" y="5285.0599999999995" as="sourcePoint"/>
                        <mxPoint x="1564.3600000000001" y="5235.0599999999995" as="targetPoint"/>
                    </mxGeometry>
                </mxCell>
                <mxCell id="530" value="&lt;font style=&quot;font-size: 36px;&quot;&gt;&lt;b&gt;14.0&lt;/b&gt;&lt;/font&gt;" style="edgeLabel;html=1;align=center;verticalAlign=middle;resizable=0;points=[];fontSize=24;" parent="391" vertex="1" connectable="0">
                    <mxGeometry x="-0.6009" y="4" relative="1" as="geometry">
                        <mxPoint x="-40" y="-21" as="offset"/>
                    </mxGeometry>
                </mxCell>
                <mxCell id="435" style="edgeStyle=none;html=1;entryX=0.25;entryY=0;entryDx=0;entryDy=0;fontSize=24;fontStyle=1;exitX=0.212;exitY=1.015;exitDx=0;exitDy=0;exitPerimeter=0;" parent="1" source="394" target="390" edge="1">
                    <mxGeometry relative="1" as="geometry">
                        <Array as="points"/>
                    </mxGeometry>
                </mxCell>
                <mxCell id="437" value="&lt;span style=&quot;font-size: 36px;&quot;&gt;&lt;b&gt;Details &amp;amp; Room Id&lt;/b&gt;&lt;br&gt;&lt;/span&gt;" style="edgeLabel;html=1;align=center;verticalAlign=middle;resizable=0;points=[];fontSize=24;" parent="435" vertex="1" connectable="0">
                    <mxGeometry x="-0.1645" y="4" relative="1" as="geometry">
                        <mxPoint x="100" y="6" as="offset"/>
                    </mxGeometry>
                </mxCell>
                <mxCell id="394" value="&lt;font style=&quot;font-size: 36px;&quot;&gt;Customer&lt;br&gt;Reservation&lt;/font&gt;" style="rounded=1;whiteSpace=wrap;html=1;fontSize=24;" parent="1" vertex="1">
                    <mxGeometry x="850" y="4550" width="290" height="240" as="geometry"/>
                </mxCell>
                <mxCell id="395" value="" style="endArrow=none;html=1;fontSize=24;exitX=-0.002;exitY=0.309;exitDx=0;exitDy=0;entryX=1.001;entryY=0.3;entryDx=0;entryDy=0;entryPerimeter=0;exitPerimeter=0;fontStyle=1" parent="1" source="394" target="394" edge="1">
                    <mxGeometry width="50" height="50" relative="1" as="geometry">
                        <mxPoint x="1309.3600000000001" y="5179.34" as="sourcePoint"/>
                        <mxPoint x="1359.3600000000001" y="5129.34" as="targetPoint"/>
                    </mxGeometry>
                </mxCell>
                <mxCell id="531" value="&lt;b&gt;&lt;font style=&quot;font-size: 36px;&quot;&gt;13.5&lt;/font&gt;&lt;/b&gt;" style="edgeLabel;html=1;align=center;verticalAlign=middle;resizable=0;points=[];fontSize=24;" parent="395" vertex="1" connectable="0">
                    <mxGeometry x="-0.5755" y="11" relative="1" as="geometry">
                        <mxPoint x="-1" y="-23" as="offset"/>
                    </mxGeometry>
                </mxCell>
                <mxCell id="403" style="edgeStyle=none;html=1;fontSize=24;entryX=0.5;entryY=0;entryDx=0;entryDy=0;fontStyle=1;exitX=0.189;exitY=1.008;exitDx=0;exitDy=0;exitPerimeter=0;" parent="1" source="348" target="376" edge="1">
                    <mxGeometry relative="1" as="geometry">
                        <mxPoint x="-500" y="4660" as="targetPoint"/>
                        <Array as="points"/>
                        <mxPoint x="-655" y="4450.000000000001" as="sourcePoint"/>
                    </mxGeometry>
                </mxCell>
                <mxCell id="412" value="&lt;span style=&quot;font-size: 36px;&quot;&gt;Registration Card&lt;br&gt;&lt;/span&gt;" style="edgeLabel;html=1;align=center;verticalAlign=middle;resizable=0;points=[];fontSize=24;" parent="403" vertex="1" connectable="0">
                    <mxGeometry x="-0.1211" y="-3" relative="1" as="geometry">
                        <mxPoint x="-12" y="122" as="offset"/>
                    </mxGeometry>
                </mxCell>
                <mxCell id="404" style="edgeStyle=none;html=1;entryX=0.25;entryY=0;entryDx=0;entryDy=0;fontSize=24;fontStyle=1;exitX=0.465;exitY=1.006;exitDx=0;exitDy=0;exitPerimeter=0;" parent="1" source="348" target="380" edge="1">
                    <mxGeometry relative="1" as="geometry">
                        <Array as="points">
                            <mxPoint x="-520" y="4440"/>
                            <mxPoint x="-370" y="4630"/>
                        </Array>
                        <mxPoint x="-514.5999999999999" y="4454.400000000001" as="sourcePoint"/>
                    </mxGeometry>
                </mxCell>
                <mxCell id="413" value="&lt;span style=&quot;font-size: 36px;&quot;&gt;Registration Card&lt;/span&gt;" style="edgeLabel;html=1;align=center;verticalAlign=middle;resizable=0;points=[];fontSize=24;" parent="404" vertex="1" connectable="0">
                    <mxGeometry x="-0.222" y="-2" relative="1" as="geometry">
                        <mxPoint x="61" y="21" as="offset"/>
                    </mxGeometry>
                </mxCell>
                <mxCell id="405" style="edgeStyle=none;html=1;entryX=0.424;entryY=-0.007;entryDx=0;entryDy=0;fontSize=24;exitX=0.739;exitY=1.039;exitDx=0;exitDy=0;entryPerimeter=0;fontStyle=1;exitPerimeter=0;" parent="1" source="348" target="388" edge="1">
                    <mxGeometry relative="1" as="geometry">
                        <Array as="points">
                            <mxPoint x="-265" y="4270"/>
                            <mxPoint x="-265" y="4640"/>
                            <mxPoint x="60" y="4640"/>
                        </Array>
                        <mxPoint x="-265" y="4450.000000000001" as="sourcePoint"/>
                    </mxGeometry>
                </mxCell>
                <mxCell id="417" value="&lt;span style=&quot;font-size: 36px;&quot;&gt;Registration Card&lt;/span&gt;" style="edgeLabel;html=1;align=center;verticalAlign=middle;resizable=0;points=[];fontSize=24;" parent="405" vertex="1" connectable="0">
                    <mxGeometry x="-0.2175" y="-2" relative="1" as="geometry">
                        <mxPoint x="128" y="189" as="offset"/>
                    </mxGeometry>
                </mxCell>
                <mxCell id="380" value="&lt;font style=&quot;font-size: 36px;&quot;&gt;&lt;b&gt;Check-out&lt;/b&gt;&lt;/font&gt;" style="rounded=1;whiteSpace=wrap;html=1;fontSize=24;" parent="1" vertex="1">
                    <mxGeometry x="-440" y="4850" width="310" height="260" as="geometry"/>
                </mxCell>
                <mxCell id="434" style="edgeStyle=none;html=1;fontSize=24;entryX=0.5;entryY=0;entryDx=0;entryDy=0;fontStyle=1;exitX=0.75;exitY=1;exitDx=0;exitDy=0;" parent="1" source="251" target="394" edge="1">
                    <mxGeometry relative="1" as="geometry">
                        <Array as="points">
                            <mxPoint x="990" y="4450"/>
                        </Array>
                    </mxGeometry>
                </mxCell>
                <mxCell id="492" value="&lt;b style=&quot;&quot;&gt;&lt;font style=&quot;font-size: 48px;&quot;&gt;Sufficient&lt;br&gt;Downpayment&lt;/font&gt;&lt;/b&gt;" style="edgeLabel;html=1;align=center;verticalAlign=middle;resizable=0;points=[];fontSize=24;" parent="434" vertex="1" connectable="0">
                    <mxGeometry x="-0.2139" y="-1" relative="1" as="geometry">
                        <mxPoint x="33" y="18" as="offset"/>
                    </mxGeometry>
                </mxCell>
                <mxCell id="454" style="edgeStyle=none;html=1;entryX=0;entryY=0;entryDx=165;entryDy=209.82;entryPerimeter=0;fontSize=24;exitX=0.25;exitY=0;exitDx=0;exitDy=0;fontStyle=1" parent="1" source="160" target="31" edge="1">
                    <mxGeometry relative="1" as="geometry">
                        <mxPoint x="3005.465" y="1970" as="sourcePoint"/>
                        <Array as="points">
                            <mxPoint x="2210" y="1790"/>
                            <mxPoint x="1850" y="1780"/>
                        </Array>
                        <mxPoint x="3170" y="1415.0900000000001" as="targetPoint"/>
                    </mxGeometry>
                </mxCell>
                <mxCell id="455" value="&lt;font style=&quot;font-size: 36px;&quot;&gt;&lt;b&gt;Schedule&amp;nbsp;&lt;br&gt;Information&lt;/b&gt;&lt;/font&gt;" style="edgeLabel;html=1;align=center;verticalAlign=middle;resizable=0;points=[];fontSize=24;" parent="454" vertex="1" connectable="0">
                    <mxGeometry x="-0.0465" y="-1" relative="1" as="geometry">
                        <mxPoint x="-50" y="-17" as="offset"/>
                    </mxGeometry>
                </mxCell>
                <mxCell id="501" value="" style="endArrow=none;html=1;fontSize=24;exitX=0;exitY=0.25;exitDx=0;exitDy=0;entryX=1;entryY=0.25;entryDx=0;entryDy=0;fontStyle=1" parent="1" source="380" target="380" edge="1">
                    <mxGeometry width="50" height="50" relative="1" as="geometry">
                        <mxPoint x="-510" y="4702.5" as="sourcePoint"/>
                        <mxPoint x="-350" y="4702.5" as="targetPoint"/>
                    </mxGeometry>
                </mxCell>
                <mxCell id="525" value="&lt;font style=&quot;font-size: 36px;&quot;&gt;&lt;b&gt;13.2&lt;/b&gt;&lt;/font&gt;" style="edgeLabel;html=1;align=center;verticalAlign=middle;resizable=0;points=[];fontSize=24;" parent="501" vertex="1" connectable="0">
                    <mxGeometry x="-0.6683" y="-1" relative="1" as="geometry">
                        <mxPoint x="16" y="-28" as="offset"/>
                    </mxGeometry>
                </mxCell>
                <mxCell id="517" style="edgeStyle=none;html=1;fontSize=24;fillColor=#FFFFFF;entryX=0.261;entryY=0.002;entryDx=0;entryDy=0;entryPerimeter=0;exitX=0.982;exitY=0.955;exitDx=0;exitDy=0;exitPerimeter=0;fontStyle=1" parent="1" source="507" target="172" edge="1">
                    <mxGeometry relative="1" as="geometry">
                        <Array as="points">
                            <mxPoint x="2930" y="1000"/>
                        </Array>
                        <mxPoint x="2820" y="880" as="sourcePoint"/>
                        <mxPoint x="2990" y="1290" as="targetPoint"/>
                    </mxGeometry>
                </mxCell>
                <mxCell id="518" value="&lt;font style=&quot;font-size: 36px;&quot;&gt;Orders &lt;br&gt;and&amp;nbsp;&lt;br&gt;Instructions&lt;/font&gt;" style="edgeLabel;html=1;align=center;verticalAlign=middle;resizable=0;points=[];fontSize=24;" parent="517" vertex="1" connectable="0">
                    <mxGeometry x="-0.1404" y="1" relative="1" as="geometry">
                        <mxPoint x="-7" y="-27" as="offset"/>
                    </mxGeometry>
                </mxCell>
                <mxCell id="522" style="edgeStyle=none;html=1;entryX=0.606;entryY=0;entryDx=0;entryDy=0;fontSize=24;fillColor=#FFFFFF;exitX=0.55;exitY=1.017;exitDx=0;exitDy=0;exitPerimeter=0;entryPerimeter=0;fontStyle=1" parent="1" source="507" target="177" edge="1">
                    <mxGeometry relative="1" as="geometry">
                        <Array as="points">
                            <mxPoint x="2630" y="1140"/>
                            <mxPoint x="2620" y="1170"/>
                        </Array>
                    </mxGeometry>
                </mxCell>
                <mxCell id="523" value="&lt;span style=&quot;font-size: 36px;&quot;&gt;Updates&lt;/span&gt;" style="edgeLabel;html=1;align=center;verticalAlign=middle;resizable=0;points=[];fontSize=24;" parent="522" vertex="1" connectable="0">
                    <mxGeometry x="-0.6095" y="-1" relative="1" as="geometry">
                        <mxPoint x="39" y="49" as="offset"/>
                    </mxGeometry>
                </mxCell>
                <mxCell id="558" style="edgeStyle=none;html=1;entryX=1;entryY=0.5;entryDx=0;entryDy=0;fontSize=36;exitX=0.89;exitY=0.002;exitDx=0;exitDy=0;exitPerimeter=0;fontStyle=1" parent="1" source="507" target="555" edge="1">
                    <mxGeometry relative="1" as="geometry">
                        <Array as="points">
                            <mxPoint x="2770" y="330"/>
                        </Array>
                    </mxGeometry>
                </mxCell>
                <mxCell id="574" value="&lt;font style=&quot;font-size: 36px;&quot;&gt;Resource&lt;br&gt;&amp;nbsp;consumption &lt;br&gt;and status&lt;/font&gt;" style="edgeLabel;html=1;align=center;verticalAlign=middle;resizable=0;points=[];fontSize=36;" parent="558" vertex="1" connectable="0">
                    <mxGeometry x="0.6803" y="-1" relative="1" as="geometry">
                        <mxPoint x="128" y="38" as="offset"/>
                    </mxGeometry>
                </mxCell>
                <mxCell id="507" value="&lt;font style=&quot;font-size: 36px;&quot;&gt;Preparation for Catering Service&lt;/font&gt;" style="rounded=1;whiteSpace=wrap;html=1;fontSize=24;" parent="1" vertex="1">
                    <mxGeometry x="2380" y="650.9" width="460.62" height="250" as="geometry"/>
                </mxCell>
                <mxCell id="508" value="" style="endArrow=none;html=1;fontSize=24;exitX=-0.005;exitY=0.315;exitDx=0;exitDy=0;entryX=1;entryY=0.297;entryDx=0;entryDy=0;exitPerimeter=0;entryPerimeter=0;fontStyle=1" parent="1" source="507" target="507" edge="1">
                    <mxGeometry width="50" height="50" relative="1" as="geometry">
                        <mxPoint x="2259.36" y="2570" as="sourcePoint"/>
                        <mxPoint x="2309.36" y="2520" as="targetPoint"/>
                    </mxGeometry>
                </mxCell>
                <mxCell id="547" value="15.0" style="edgeLabel;html=1;align=center;verticalAlign=middle;resizable=0;points=[];fontSize=36;" parent="508" vertex="1" connectable="0">
                    <mxGeometry x="-0.8153" y="1" relative="1" as="geometry">
                        <mxPoint x="8" y="-28" as="offset"/>
                    </mxGeometry>
                </mxCell>
                <mxCell id="545" style="edgeStyle=none;html=1;exitX=0.668;exitY=-0.009;exitDx=0;exitDy=0;exitPerimeter=0;entryX=0.633;entryY=1.004;entryDx=0;entryDy=0;entryPerimeter=0;fontStyle=1" parent="1" source="537" target="164" edge="1">
                    <mxGeometry relative="1" as="geometry">
                        <mxPoint x="2619.9986363636367" y="2890.000000000001" as="sourcePoint"/>
                        <mxPoint x="2627.12106060606" y="2730.000000000001" as="targetPoint"/>
                    </mxGeometry>
                </mxCell>
                <mxCell id="546" value="&lt;font style=&quot;font-size: 36px;&quot;&gt;Customer Feedback&lt;/font&gt;" style="edgeLabel;html=1;align=center;verticalAlign=middle;resizable=0;points=[];" parent="545" vertex="1" connectable="0">
                    <mxGeometry x="-0.2884" y="3" relative="1" as="geometry">
                        <mxPoint x="62" y="-23" as="offset"/>
                    </mxGeometry>
                </mxCell>
                <mxCell id="537" value="&lt;font style=&quot;font-size: 48px;&quot;&gt;CUSTOMER&lt;/font&gt;" style="shape=cube;whiteSpace=wrap;html=1;boundedLbl=1;backgroundOutline=1;darkOpacity=0.05;darkOpacity2=0.1;" parent="1" vertex="1">
                    <mxGeometry x="2340" y="3015" width="450.62" height="150" as="geometry"/>
                </mxCell>
                <mxCell id="579" style="edgeStyle=none;html=1;fontSize=24;exitX=0.147;exitY=-0.004;exitDx=0;exitDy=0;exitPerimeter=0;entryX=0;entryY=0.5;entryDx=0;entryDy=0;fontStyle=1" parent="1" source="555" target="608" edge="1">
                    <mxGeometry relative="1" as="geometry">
                        <Array as="points">
                            <mxPoint x="1690" y="-136"/>
                        </Array>
                    </mxGeometry>
                </mxCell>
                <mxCell id="597" value="&lt;font style=&quot;font-size: 36px;&quot;&gt;Processed and Validated consumed resources&lt;/font&gt;" style="edgeLabel;html=1;align=center;verticalAlign=middle;resizable=0;points=[];fontSize=24;" parent="579" vertex="1" connectable="0">
                    <mxGeometry x="0.2479" y="-3" relative="1" as="geometry">
                        <mxPoint x="167" y="104" as="offset"/>
                    </mxGeometry>
                </mxCell>
                <mxCell id="603" style="edgeStyle=none;html=1;entryX=0.072;entryY=-0.008;entryDx=0;entryDy=0;entryPerimeter=0;fontSize=24;exitX=0.329;exitY=1.01;exitDx=0;exitDy=0;exitPerimeter=0;fontStyle=1" parent="1" source="555" target="29" edge="1">
                    <mxGeometry relative="1" as="geometry"/>
                </mxCell>
                <mxCell id="604" value="&lt;font style=&quot;font-size: 36px;&quot;&gt;&lt;b&gt;Updates on&lt;br&gt;Unvalidated&amp;nbsp;&lt;br&gt;Resources&amp;nbsp;&lt;br&gt;Consumed&lt;/b&gt;&lt;/font&gt;" style="edgeLabel;html=1;align=center;verticalAlign=middle;resizable=0;points=[];fontSize=24;" parent="603" vertex="1" connectable="0">
                    <mxGeometry x="-0.4093" y="-7" relative="1" as="geometry">
                        <mxPoint x="-64" y="93" as="offset"/>
                    </mxGeometry>
                </mxCell>
                <mxCell id="555" value="&lt;font style=&quot;font-size: 36px;&quot;&gt;Record to Inventory Excel Sheet the costs and&amp;nbsp;&lt;br&gt;resources consumed&lt;/font&gt;" style="rounded=1;whiteSpace=wrap;html=1;fontSize=24;" parent="1" vertex="1">
                    <mxGeometry x="1570" y="200" width="820" height="240" as="geometry"/>
                </mxCell>
                <mxCell id="556" value="" style="endArrow=none;html=1;fontSize=24;exitX=0;exitY=0.25;exitDx=0;exitDy=0;entryX=1;entryY=0.25;entryDx=0;entryDy=0;fontStyle=1" parent="1" source="555" target="555" edge="1">
                    <mxGeometry width="50" height="50" relative="1" as="geometry">
                        <mxPoint x="1399.3600000000001" y="319.8199999999997" as="sourcePoint"/>
                        <mxPoint x="1449.3600000000001" y="269.8199999999997" as="targetPoint"/>
                    </mxGeometry>
                </mxCell>
                <mxCell id="557" value="16.0" style="edgeLabel;html=1;align=center;verticalAlign=middle;resizable=0;points=[];fontSize=36;" parent="556" vertex="1" connectable="0">
                    <mxGeometry x="-0.7161" y="3" relative="1" as="geometry">
                        <mxPoint x="8" y="-19" as="offset"/>
                    </mxGeometry>
                </mxCell>
                <mxCell id="565" style="edgeStyle=none;html=1;fontSize=36;entryX=0.277;entryY=0.002;entryDx=0;entryDy=0;entryPerimeter=0;fontStyle=1" parent="1" source="559" target="555" edge="1">
                    <mxGeometry relative="1" as="geometry">
                        <Array as="points">
                            <mxPoint x="1800" y="120"/>
                        </Array>
                    </mxGeometry>
                </mxCell>
                <mxCell id="598" value="&lt;font style=&quot;font-size: 36px;&quot;&gt;record of consumed&amp;nbsp;resources&lt;/font&gt;" style="edgeLabel;html=1;align=center;verticalAlign=middle;resizable=0;points=[];fontSize=24;" parent="565" vertex="1" connectable="0">
                    <mxGeometry x="-0.0425" y="-2" relative="1" as="geometry">
                        <mxPoint x="30" y="2" as="offset"/>
                    </mxGeometry>
                </mxCell>
                <mxCell id="581" style="edgeStyle=none;html=1;fontSize=24;exitX=0.926;exitY=1.007;exitDx=0;exitDy=0;exitPerimeter=0;entryX=0.661;entryY=0.006;entryDx=0;entryDy=0;entryPerimeter=0;fontStyle=1" parent="1" source="559" target="172" edge="1">
                    <mxGeometry relative="1" as="geometry">
                        <mxPoint x="3180" y="1450" as="targetPoint"/>
                        <Array as="points">
                            <mxPoint x="2920" y="310"/>
                            <mxPoint x="3130" y="420"/>
                            <mxPoint x="3170" y="710"/>
                            <mxPoint x="3180" y="1040"/>
                        </Array>
                    </mxGeometry>
                </mxCell>
                <mxCell id="585" value="&lt;span style=&quot;font-size: 36px;&quot;&gt;&lt;b&gt;Instructions&lt;/b&gt;&lt;/span&gt;" style="edgeLabel;html=1;align=center;verticalAlign=middle;resizable=0;points=[];fontSize=24;" parent="581" vertex="1" connectable="0">
                    <mxGeometry x="-0.7108" y="7" relative="1" as="geometry">
                        <mxPoint x="17" y="19" as="offset"/>
                    </mxGeometry>
                </mxCell>
                <mxCell id="606" style="edgeStyle=none;html=1;entryX=0.764;entryY=1.015;entryDx=0;entryDy=0;entryPerimeter=0;fontSize=24;exitX=0.895;exitY=-0.018;exitDx=0;exitDy=0;exitPerimeter=0;fontStyle=1" parent="1" source="559" target="590" edge="1">
                    <mxGeometry relative="1" as="geometry"/>
                </mxCell>
                <mxCell id="607" value="&lt;font style=&quot;font-size: 36px;&quot;&gt;Situation Report and status&amp;nbsp;&lt;/font&gt;" style="edgeLabel;html=1;align=center;verticalAlign=middle;resizable=0;points=[];fontSize=24;" parent="606" vertex="1" connectable="0">
                    <mxGeometry x="0.3185" y="-3" relative="1" as="geometry">
                        <mxPoint x="184" y="34" as="offset"/>
                    </mxGeometry>
                </mxCell>
                <mxCell id="559" value="&lt;font style=&quot;font-size: 36px;&quot;&gt;Facilities Maintenance and&amp;nbsp;&lt;br&gt;preparation of services&lt;/font&gt;" style="rounded=1;whiteSpace=wrap;html=1;fontSize=24;" parent="1" vertex="1">
                    <mxGeometry x="2440" width="520" height="240" as="geometry"/>
                </mxCell>
                <mxCell id="560" value="" style="endArrow=none;html=1;fontSize=24;exitX=0;exitY=0.25;exitDx=0;exitDy=0;entryX=1;entryY=0.25;entryDx=0;entryDy=0;fontStyle=1" parent="1" source="559" target="559" edge="1">
                    <mxGeometry width="50" height="50" relative="1" as="geometry">
                        <mxPoint x="2269.36" y="119.81999999999971" as="sourcePoint"/>
                        <mxPoint x="2319.36" y="69.81999999999971" as="targetPoint"/>
                    </mxGeometry>
                </mxCell>
                <mxCell id="561" value="16.0" style="edgeLabel;html=1;align=center;verticalAlign=middle;resizable=0;points=[];fontSize=36;" parent="560" vertex="1" connectable="0">
                    <mxGeometry x="-0.7161" y="3" relative="1" as="geometry">
                        <mxPoint x="8" y="-19" as="offset"/>
                    </mxGeometry>
                </mxCell>
                <mxCell id="576" style="edgeStyle=none;html=1;fontSize=24;fontStyle=1;entryX=0.837;entryY=-0.003;entryDx=0;entryDy=0;entryPerimeter=0;" parent="1" source="566" target="177" edge="1">
                    <mxGeometry relative="1" as="geometry">
                        <mxPoint x="2710" y="1200" as="targetPoint"/>
                        <Array as="points">
                            <mxPoint x="3280" y="-80"/>
                            <mxPoint x="3290" y="990"/>
                            <mxPoint x="3010" y="1140"/>
                            <mxPoint x="2676" y="1150"/>
                        </Array>
                    </mxGeometry>
                </mxCell>
                <mxCell id="587" value="&lt;font style=&quot;font-size: 36px;&quot;&gt;Inventory status and changes&amp;nbsp;&lt;/font&gt;" style="edgeLabel;html=1;align=center;verticalAlign=middle;resizable=0;points=[];fontSize=24;" parent="576" vertex="1" connectable="0">
                    <mxGeometry x="-0.888" y="-1" relative="1" as="geometry">
                        <mxPoint x="160" y="14" as="offset"/>
                    </mxGeometry>
                </mxCell>
                <mxCell id="588" value="&lt;font style=&quot;font-size: 48px;&quot;&gt;&lt;b&gt;inventory&lt;br&gt;Status&lt;/b&gt;&lt;/font&gt;" style="edgeLabel;html=1;align=center;verticalAlign=middle;resizable=0;points=[];fontSize=24;" parent="576" vertex="1" connectable="0">
                    <mxGeometry x="0.8893" y="-1" relative="1" as="geometry">
                        <mxPoint x="105" y="45" as="offset"/>
                    </mxGeometry>
                </mxCell>
                <mxCell id="566" value="" style="rounded=0;whiteSpace=wrap;html=1;fontSize=24;" parent="1" vertex="1">
                    <mxGeometry x="1810" y="-220" width="410" height="178.67" as="geometry"/>
                </mxCell>
                <mxCell id="567" value="" style="endArrow=none;html=1;fontSize=24;exitX=0.155;exitY=-0.002;exitDx=0;exitDy=0;exitPerimeter=0;entryX=0.152;entryY=1.011;entryDx=0;entryDy=0;entryPerimeter=0;fontStyle=1" parent="1" source="566" target="566" edge="1">
                    <mxGeometry width="50" height="50" relative="1" as="geometry">
                        <mxPoint x="1840" y="-21.75" as="sourcePoint"/>
                        <mxPoint x="1890" y="-71.75" as="targetPoint"/>
                    </mxGeometry>
                </mxCell>
                <mxCell id="568" value="&lt;font style=&quot;font-size: 36px;&quot;&gt;Excel Inventory Spreadsheet&lt;/font&gt;" style="text;html=1;strokeColor=none;fillColor=none;align=center;verticalAlign=middle;whiteSpace=wrap;rounded=0;fontSize=36;" parent="1" vertex="1">
                    <mxGeometry x="1905" y="-150.83000000000004" width="220" height="40.33" as="geometry"/>
                </mxCell>
                <mxCell id="570" value="" style="endArrow=classic;html=1;fontSize=36;entryX=0.75;entryY=1;entryDx=0;entryDy=0;exitX=0.549;exitY=-0.005;exitDx=0;exitDy=0;exitPerimeter=0;fontStyle=1" parent="1" source="29" target="559" edge="1">
                    <mxGeometry width="50" height="50" relative="1" as="geometry">
                        <mxPoint x="2250" y="770" as="sourcePoint"/>
                        <mxPoint x="2710" y="410" as="targetPoint"/>
                        <Array as="points">
                            <mxPoint x="2010" y="720"/>
                            <mxPoint x="2180" y="640"/>
                            <mxPoint x="2370" y="620"/>
                            <mxPoint x="2840" y="570"/>
                        </Array>
                    </mxGeometry>
                </mxCell>
                <mxCell id="601" value="&lt;span style=&quot;&quot;&gt;&lt;font style=&quot;font-size: 36px;&quot;&gt;Orders and Instructions&lt;/font&gt;&lt;/span&gt;" style="edgeLabel;html=1;align=center;verticalAlign=middle;resizable=0;points=[];fontSize=24;" parent="570" vertex="1" connectable="0">
                    <mxGeometry x="-0.4262" y="2" relative="1" as="geometry">
                        <mxPoint x="-93" y="22" as="offset"/>
                    </mxGeometry>
                </mxCell>
                <mxCell id="593" style="edgeStyle=none;html=1;entryX=0.75;entryY=0;entryDx=0;entryDy=0;fontSize=24;fontStyle=1" parent="1" source="590" target="559" edge="1">
                    <mxGeometry relative="1" as="geometry"/>
                </mxCell>
                <mxCell id="594" value="&lt;font style=&quot;font-size: 36px;&quot;&gt;Tasks Specific &lt;br&gt;Orders and Instructions&amp;nbsp;&lt;/font&gt;" style="edgeLabel;html=1;align=center;verticalAlign=middle;resizable=0;points=[];fontSize=24;" parent="593" vertex="1" connectable="0">
                    <mxGeometry x="-0.6171" y="1" relative="1" as="geometry">
                        <mxPoint x="-175" y="17" as="offset"/>
                    </mxGeometry>
                </mxCell>
                <mxCell id="590" value="&lt;font style=&quot;&quot;&gt;&lt;font style=&quot;font-size: 36px;&quot;&gt;Management Officer&lt;/font&gt;&lt;br&gt;&lt;/font&gt;" style="shape=cube;whiteSpace=wrap;html=1;boundedLbl=1;backgroundOutline=1;darkOpacity=0.05;darkOpacity2=0.1;" parent="1" vertex="1">
                    <mxGeometry x="2665" y="-570" width="310" height="209.82" as="geometry"/>
                </mxCell>
                <mxCell id="600" value="" style="edgeStyle=none;html=1;fontSize=24;fillColor=#FFFFFF;exitX=0;exitY=0;exitDx=300;exitDy=0;exitPerimeter=0;endArrow=none;fontStyle=1;entryX=0.122;entryY=1.134;entryDx=0;entryDy=0;entryPerimeter=0;" parent="1" source="29" target="572" edge="1">
                    <mxGeometry relative="1" as="geometry">
                        <Array as="points"/>
                        <mxPoint x="2063.5200000000004" y="870.8400000000001" as="sourcePoint"/>
                        <mxPoint x="2381.8424800000003" y="769.4000000000001" as="targetPoint"/>
                    </mxGeometry>
                </mxCell>
                <mxCell id="605" style="edgeStyle=none;html=1;entryX=0;entryY=0.5;entryDx=0;entryDy=0;fontSize=24;fontStyle=1" parent="1" source="572" target="507" edge="1">
                    <mxGeometry relative="1" as="geometry"/>
                </mxCell>
                <mxCell id="572" value="&lt;span style=&quot;background-color: rgb(24, 20, 29);&quot;&gt;&lt;font style=&quot;font-size: 48px;&quot;&gt;&lt;b&gt;&amp;nbsp;Instructions&lt;/b&gt;&lt;/font&gt;&lt;/span&gt;" style="text;html=1;strokeColor=none;fillColor=none;align=center;verticalAlign=middle;whiteSpace=wrap;rounded=0;fontSize=36;" parent="1" vertex="1">
                    <mxGeometry x="2110" y="770" width="170" height="30" as="geometry"/>
                </mxCell>
                <mxCell id="608" value="&lt;font style=&quot;font-size: 24px;&quot;&gt;D1&lt;/font&gt;" style="text;html=1;strokeColor=none;fillColor=none;align=center;verticalAlign=middle;whiteSpace=wrap;rounded=0;" parent="1" vertex="1">
                    <mxGeometry x="1810" y="-150.82999999999998" width="60" height="30" as="geometry"/>
                </mxCell>
                <mxCell id="610" value="D3" style="text;html=1;strokeColor=none;fillColor=none;align=center;verticalAlign=middle;whiteSpace=wrap;rounded=0;fontSize=24;" parent="1" vertex="1">
                    <mxGeometry x="650" y="3295" width="60" height="30" as="geometry"/>
                </mxCell>
                <mxCell id="611" value="D4" style="text;html=1;strokeColor=none;fillColor=none;align=center;verticalAlign=middle;whiteSpace=wrap;rounded=0;fontSize=24;" parent="1" vertex="1">
                    <mxGeometry x="1350" y="3240" width="60" height="30" as="geometry"/>
                </mxCell>
                <mxCell id="673" style="edgeStyle=none;html=1;entryX=0;entryY=0.5;entryDx=0;entryDy=0;fontSize=24;exitX=0.928;exitY=1.004;exitDx=0;exitDy=0;fontStyle=1;exitPerimeter=0;" edge="1" parent="1" source="348" target="384">
                    <mxGeometry relative="1" as="geometry">
                        <Array as="points">
                            <mxPoint x="-180" y="4280"/>
                            <mxPoint x="80" y="4290"/>
                            <mxPoint x="150" y="4520"/>
                        </Array>
                        <mxPoint x="-286.12820999999985" y="3991.8" as="sourcePoint"/>
                        <mxPoint x="69.64000000000033" y="4738.53" as="targetPoint"/>
                    </mxGeometry>
                </mxCell>
                <mxCell id="674" value="&lt;span style=&quot;font-size: 36px;&quot;&gt;Registration Card&lt;/span&gt;" style="edgeLabel;html=1;align=center;verticalAlign=middle;resizable=0;points=[];fontSize=24;" vertex="1" connectable="0" parent="673">
                    <mxGeometry x="-0.2175" y="-2" relative="1" as="geometry">
                        <mxPoint x="67" y="92" as="offset"/>
                    </mxGeometry>
                </mxCell>
            </root>
        </mxGraphModel>
    </diagram>
</mxfile>